<svg width="26" height="26" viewBox="0 0 26 26" fill="none" xmlns="http://www.w3.org/2000/svg">
<path d="M13.0005 26C20.1799 26 25.9999 20.1799 25.9999 13.0005C25.9999 5.82115 20.1799 0.00110626 13.0005 0.00110626C5.82114 0.00110626 0.00109863 5.82115 0.00109863 13.0005C0.00109863 20.1799 5.82114 26 13.0005 26Z" fill="white"/>
<path d="M0.00012207 13.0001C0.00012207 17.8864 2.69749 22.1408 6.68284 24.3615V1.63799C2.69749 3.85892 0.00012207 8.11317 0.00012207 13.0001Z" fill="#D32027"/>
<path d="M12.9998 25.9998C12.8502 25.9998 12.7063 25.9947 12.5596 25.9922C12.7054 25.9971 12.8521 25.9998 12.9998 25.9998Z" fill="white"/>
<path d="M12.9997 0C12.9956 0 12.9922 0.000219557 12.988 0.000219557C12.992 0.000219557 12.9957 0 12.9997 0C20.1796 0 20.1796 26 12.9997 26C15.2888 26 17.4381 25.4062 19.3064 24.3675V1.63224C17.4381 0.593627 15.2888 0 12.9997 0Z" fill="#E7E7E7"/>
<path d="M19.3064 1.63224V24.3673C23.2977 22.1482 25.9998 17.8904 25.9998 13.0001C25.9998 8.10912 23.2978 3.85136 19.3064 1.63224Z" fill="#B52025"/>
<path d="M12.9998 0C12.9957 0 12.9922 0 12.9881 0C10.6994 0.0020309 8.55011 0.597744 6.68262 1.63801V24.3614C8.43287 25.3366 10.4311 25.9212 12.5595 25.992C12.7063 25.9945 12.8501 25.9996 12.9998 25.9996C20.1796 25.9998 20.1796 0 12.9998 0Z" fill="#F3F1F2"/>
<path d="M18.0447 12.765C17.8659 12.5943 17.4991 12.6132 17.4336 12.3293C17.347 11.632 17.6678 11.226 17.8702 10.76C16.8459 10.9996 16.0384 11.3939 16.0392 10.2371C15.4511 10.9561 14.8189 11.6751 14.5578 11.5446C14.1869 11.3266 14.9137 9.47597 14.9932 8.49395C14.6344 8.65773 13.9472 9.01693 13.9472 9.01693C13.9472 9.01693 13.3225 7.79521 12.9919 7.19258V7.18599C12.9907 7.1872 12.9907 7.18824 12.9902 7.18928C12.9894 7.18846 12.9894 7.18725 12.9886 7.18599V7.19258C12.6575 7.79521 12.0333 9.01693 12.0333 9.01693C12.0333 9.01693 11.3456 8.65773 10.9873 8.49395C11.0663 9.47613 11.7932 11.3268 11.4222 11.5446C11.1609 11.6753 10.5289 10.9561 9.94125 10.2371C9.94125 11.3939 9.13415 10.9996 8.1103 10.76C8.31229 11.2258 8.63312 11.6318 8.54568 12.3293C8.48124 12.6132 8.1142 12.5943 7.93542 12.765C9.12367 13.9529 11.1831 14.8351 10.2021 15.8158L12.8469 15.5691C12.9335 16.4628 12.6538 17.5596 12.8966 18.1698C12.9535 18.1698 12.9348 18.1698 12.9884 18.1698C12.9892 18.1698 12.9904 18.1698 12.9917 18.1698C13.045 18.1698 13.0253 18.1698 13.0818 18.1698C13.3296 17.5376 13.0465 16.463 13.1331 15.5691L15.7775 15.8158C14.7975 14.8351 16.8569 13.9529 18.0447 12.765Z" fill="#D32027"/>
</svg>
