<svg width="61" height="64" viewBox="0 0 61 64" fill="none" xmlns="http://www.w3.org/2000/svg">
<path d="M60.7642 38.8482C59.4951 21.5069 44.655 9.87645 40.3016 6.8207C39.7192 6.41195 38.9126 6.70433 38.7172 7.38845L37.0376 13.2671C37.0376 13.2671 31.7159 7.05845 21.0725 2.02945C20.1855 1.61033 19.2657 2.55958 19.707 3.43583L21.5075 7.01095C11.9679 2.19933 4.27 0.530831 1.20138 0.0147064C0.484632 -0.105793 -0.126992 0.532956 0.0227576 1.24421C0.604382 4.00895 2.35126 10.4174 7.012 17.4086L6.94775 21.8979L15.6424 37.0676L12.7102 41.2621C18.0857 54.8638 25.7062 62.9405 37.9312 63.0087C47.2807 63.0607 54.6856 58.4222 58.2803 50.4522L58.8703 50.0782C60.3526 46.6547 61.0551 42.8228 60.7642 38.8482Z" fill="#EF233C"/>
<path d="M18.283 15.9078L21.5071 21.5501L15.7327 22.3749C15.0187 22.4769 14.6251 23.2596 14.9691 23.8936L21.6865 36.2773L46.985 25.4833C46.985 25.4833 33.3777 15.1748 19.2486 14.3539C18.4252 14.3062 17.8739 15.1918 18.283 15.9078Z" fill="#8B2B37"/>
<path d="M56.7095 41.2219C56.7095 45.173 55.48 48.8369 53.3826 51.8519C50.0164 56.691 44.4145 58.6919 38.073 58.6919C27.7804 58.6919 20.5835 51.5145 20.5835 41.2218C20.5835 34.8823 22.6018 29.2821 27.4383 25.9154C30.4541 23.8162 34.1198 22.5853 38.0729 22.5853C48.3656 22.5854 56.7095 30.9293 56.7095 41.2219Z" fill="#FFC263"/>
<path d="M54.5532 39.5176C53.7779 31.784 47.5108 25.5169 39.7772 24.7417C35.7223 24.3352 31.9373 25.3982 28.8749 27.457C27.9212 28.0983 26.7407 26.9137 27.3947 25.9687L27.4384 25.9155C21.9039 29.7714 18.5515 36.5547 19.6414 44.0241C20.8109 52.0386 27.2564 58.484 35.2708 59.6535C42.7403 60.7435 49.5268 57.3864 53.3827 51.8519C53.3667 51.863 53.339 51.8843 53.323 51.8954C52.378 52.5494 51.1967 51.3738 51.8379 50.4199C53.8967 47.3575 54.9597 43.5726 54.5532 39.5176Z" fill="#FFAA5A"/>
<path d="M38.0729 55.717C46.0783 55.717 52.568 49.2273 52.568 41.2219C52.568 33.2165 46.0783 26.7268 38.0729 26.7268C30.0674 26.7268 23.5777 33.2165 23.5777 41.2219C23.5777 49.2273 30.0674 55.717 38.0729 55.717Z" fill="#FFF4D6"/>
<path d="M38.0729 53.6463C44.9347 53.6463 50.4972 48.0837 50.4972 41.2219C50.4972 34.3601 44.9347 28.7976 38.0729 28.7976C31.2111 28.7976 25.6485 34.3601 25.6485 41.2219C25.6485 48.0837 31.2111 53.6463 38.0729 53.6463Z" fill="white"/>
<path d="M48.4265 42.2573H38.0729C37.7979 42.2573 37.535 42.148 37.3409 41.9539L31.1287 35.7418C30.7242 35.3373 30.7242 34.6822 31.1287 34.2777C31.5332 33.8732 32.1884 33.8732 32.5929 34.2777L38.5017 40.1866H48.4266C48.9989 40.1866 49.462 40.6502 49.462 41.2219C49.4619 41.7937 48.9989 42.2573 48.4265 42.2573Z" fill="#4E3D4D"/>
<path d="M38.0728 32.939C37.5006 32.939 37.0375 32.4754 37.0375 31.9037V30.8683C37.0375 30.2965 37.5006 29.8329 38.0728 29.8329C38.6451 29.8329 39.1082 30.2965 39.1082 30.8683V31.9037C39.1082 32.4754 38.6452 32.939 38.0728 32.939Z" fill="#FF8B57"/>
<path d="M38.0728 52.6109C37.5006 52.6109 37.0375 52.1473 37.0375 51.5755V50.5402C37.0375 49.9684 37.5006 49.5048 38.0728 49.5048C38.6451 49.5048 39.1082 49.9684 39.1082 50.5402V51.5755C39.1082 52.1474 38.6452 52.6109 38.0728 52.6109Z" fill="#FF8B57"/>
<path d="M28.7546 42.2573H27.7192C27.147 42.2573 26.6838 41.7937 26.6838 41.2219C26.6838 40.6502 27.147 40.1865 27.7192 40.1865H28.7546C29.3268 40.1865 29.79 40.6502 29.79 41.2219C29.79 41.7937 29.3268 42.2573 28.7546 42.2573Z" fill="#FF8B57"/>
<path d="M38.0728 43.2927C39.2165 43.2927 40.1436 42.3656 40.1436 41.2219C40.1436 40.0783 39.2165 39.1512 38.0728 39.1512C36.9292 39.1512 36.0021 40.0783 36.0021 41.2219C36.0021 42.3656 36.9292 43.2927 38.0728 43.2927Z" fill="#FFAA5A"/>
<path d="M58.8703 50.0783L58.8115 50.0658C57.7245 49.881 56.6533 50.4118 56.1123 51.3725C52.4721 57.8353 45.4683 62.148 37.47 61.9206C28.828 61.6749 21.3002 55.8198 18.4657 47.6521C17.3187 44.347 17.1454 41.1888 17.594 38.2315C17.8448 36.579 17.5027 34.8929 16.6427 33.4597L7.01204 17.4086L3.95429 18.1731C3.36204 18.3212 3.02579 18.9427 3.22767 19.5188C4.22917 22.3768 7.38041 30.4018 13.2243 37.0805L8.27216 37.9059C7.62341 38.014 7.23066 38.6999 7.47554 39.3104C13.7962 55.0681 25.7065 63.9316 37.9313 63.9996C43.3665 64.0299 48.2935 62.1229 52.1739 58.9564C55.057 56.5231 57.4038 53.4646 58.8703 50.0783Z" fill="#A90F22"/>
<g clip-path="url(#clip0)">
<path d="M38.1019 61.7499C49.3892 61.7499 58.5394 52.5997 58.5394 41.3124C58.5394 30.0251 49.3892 20.8749 38.1019 20.8749C26.8146 20.8749 17.6644 30.0251 17.6644 41.3124C17.6644 52.5997 26.8146 61.7499 38.1019 61.7499Z" fill="#FDBA12"/>
<path d="M53.7493 41.3108V41.3124C53.7493 45.6189 52.0096 49.519 49.1945 52.3484L38.1115 56.9597C38.0972 56.9597 38.1258 56.9598 38.1115 56.9598C33.9121 56.9598 30.0895 55.3055 27.2789 52.613L22.4546 41.3124C22.4546 36.9535 24.236 33.013 27.1116 30.1757L38.1116 25.6655C42.3747 25.6767 46.2694 27.3938 49.0851 30.169L53.7493 41.3108Z" fill="white"/>
<path d="M38.1116 25.6655C42.3747 25.6768 46.2694 27.3939 49.0851 30.169L53.7494 41.3107V41.3123C53.7494 45.6189 52.0096 49.519 49.1946 52.3484L38.1116 56.9597V29.2215V25.6655Z" fill="#E9EDF5"/>
<path d="M38.1115 25.6655C38.0969 25.6655 38.1261 25.6655 38.1115 25.6655C33.8278 25.6655 29.9372 27.387 27.1115 30.1757L38.1115 41.2549V29.3373V25.6655Z" fill="#EF233C"/>
<path d="M22.4545 41.3123C22.4545 45.7549 24.3062 49.7648 27.2796 52.6131L38.1114 41.4288V41.3108L22.4545 41.3123Z" fill="#EF233C"/>
<path d="M49.085 30.1691L38.1115 41.3109H53.7493C53.7489 36.9497 51.9636 33.0064 49.085 30.1691Z" fill="#EF233C"/>
<path d="M38.1115 41.4288V53.2872V56.9591C42.4293 56.9473 46.3698 55.1866 49.1941 52.3482L38.1115 41.3407V41.4288Z" fill="#EF233C"/>
<path d="M38.1116 30.5347C44.0639 30.5347 48.8796 35.3599 48.8796 41.3122C48.8796 47.2645 44.0639 52.0898 38.1116 52.0898C32.1593 52.0898 27.3245 47.2646 27.3245 41.3122C27.3244 35.36 32.1592 30.5347 38.1116 30.5347Z" fill="white"/>
<path d="M48.8796 41.3122C48.8796 35.3632 44.0594 30.5399 38.1115 30.5348V52.0897C44.0594 52.0846 48.8796 47.2614 48.8796 41.3122Z" fill="#E9EDF5"/>
<path d="M38.1115 53.2873C31.5085 53.2873 26.1269 47.9154 26.1269 41.3122C26.1269 34.7091 31.5085 29.3372 38.1115 29.3372C41.3102 29.3372 44.3079 30.5828 46.5697 32.8446C48.8315 35.1064 50.0771 38.1135 50.0771 41.3122C50.0771 47.9153 44.7146 53.2873 38.1115 53.2873ZM38.1115 31.7322C32.8291 31.7322 28.5219 36.0298 28.5219 41.3122C28.5219 46.5947 32.8291 50.8923 38.1115 50.8923C43.394 50.8923 47.682 46.5947 47.682 41.3122C47.682 38.7533 46.6856 36.3475 44.876 34.5381C43.0667 32.7287 40.6704 31.7322 38.1115 31.7322Z" fill="#DCE1EB"/>
<path d="M50.0771 41.3123C50.0771 38.1136 48.8314 35.1064 46.5696 32.8446C44.31 30.5851 41.3066 29.3398 38.1115 29.3373V31.7323C40.6668 31.7348 43.0688 32.731 44.876 34.5382C46.6855 36.3476 47.682 38.7533 47.682 41.3123C47.682 46.5916 43.3895 50.8871 38.1115 50.8922V53.2873C44.7102 53.282 50.0771 47.9121 50.0771 41.3123Z" fill="#BEC3D2"/>
<path d="M44.7894 41.9285C44.5529 41.7011 44.0675 41.7263 43.9809 41.3483C43.8663 40.4198 44.2908 39.8792 44.5585 39.2588C43.2034 39.5778 42.135 40.1028 42.1361 38.5625C41.358 39.5199 40.5216 40.4772 40.1761 40.3034C39.6854 40.0132 40.647 37.5491 40.7522 36.2415C40.2774 36.4596 39.3682 36.9378 39.3682 36.9378C39.3682 36.9378 38.5418 35.3111 38.1043 34.5087V34.4999C38.1027 34.5015 38.1027 34.5029 38.1021 34.5043C38.101 34.5032 38.101 34.5016 38.1 34.4999V34.5087C37.6619 35.3111 36.8361 36.9378 36.8361 36.9378C36.8361 36.9378 35.9263 36.4596 35.4521 36.2415C35.5567 37.5493 36.5183 40.0134 36.0276 40.3034C35.6819 40.4775 34.8457 39.5199 34.0682 38.5625C34.0682 40.1028 33.0004 39.5778 31.6458 39.2588C31.913 39.8789 32.3375 40.4196 32.2218 41.3483C32.1365 41.7263 31.6509 41.7011 31.4144 41.9285C32.9865 43.5101 35.7112 44.6848 34.4133 45.9906L37.9125 45.6621C38.0271 46.8521 37.657 48.3124 37.9782 49.1249C38.0535 49.1249 38.0288 49.1249 38.0997 49.1249C38.1008 49.1249 38.1024 49.1249 38.104 49.1249C38.1746 49.1249 38.1485 49.1249 38.2233 49.1249C38.5511 48.2831 38.1766 46.8523 38.2912 45.6621L41.7898 45.9906C40.4932 44.6848 43.2179 43.5101 44.7894 41.9285Z" fill="#D32027"/>
</g>
<defs>
<clipPath id="clip0">
<rect width="40.875" height="40.875" fill="white" transform="translate(17.6644 20.8749)"/>
</clipPath>
</defs>
</svg>
