<svg width="33" height="25" viewBox="0 0 33 25" fill="none" xmlns="http://www.w3.org/2000/svg">
<g clip-path="url(#clip0)">
<path d="M31.7506 24.6609V24.7252H31.8106C31.8218 24.7253 31.8329 24.7225 31.8427 24.717C31.8466 24.7142 31.8497 24.7105 31.8519 24.7062C31.854 24.7019 31.855 24.6972 31.8547 24.6924C31.8549 24.6877 31.8539 24.683 31.8518 24.6788C31.8497 24.6746 31.8466 24.6711 31.8427 24.6684C31.833 24.6626 31.8218 24.6598 31.8106 24.6602H31.7506V24.6609ZM31.8112 24.6154C31.8369 24.6138 31.8623 24.6212 31.8832 24.6363C31.8915 24.6432 31.8982 24.6519 31.9026 24.6617C31.9069 24.6716 31.9089 24.6824 31.9084 24.6932C31.9088 24.7025 31.9072 24.7117 31.9037 24.7204C31.9002 24.729 31.8949 24.7367 31.8882 24.7431C31.8721 24.7571 31.8519 24.7655 31.8306 24.7671L31.911 24.8587H31.8491L31.7752 24.7677H31.7513V24.8587H31.6995V24.6156H31.812L31.8112 24.6154ZM31.7951 24.9425C31.8223 24.9428 31.8492 24.9373 31.874 24.9265C31.898 24.9161 31.9198 24.9014 31.9383 24.8829C31.9568 24.8645 31.9716 24.8427 31.9818 24.8187C32.0029 24.7677 32.0029 24.7105 31.9818 24.6596C31.9714 24.6357 31.9567 24.6139 31.9383 24.5953C31.9198 24.5769 31.898 24.5621 31.874 24.5518C31.849 24.5415 31.8222 24.5364 31.7951 24.5367C31.7676 24.5364 31.7403 24.5416 31.7148 24.5518C31.6903 24.5619 31.668 24.5767 31.6491 24.5953C31.6207 24.6245 31.6014 24.6614 31.5938 24.7014C31.5862 24.7413 31.5905 24.7827 31.6062 24.8203C31.616 24.8444 31.6306 24.8663 31.6491 24.8845C31.668 24.9031 31.6903 24.9179 31.7148 24.9281C31.7402 24.9389 31.7675 24.9444 31.7951 24.9441V24.9425ZM31.7951 24.4782C31.8657 24.4781 31.9336 24.5058 31.9839 24.5553C32.0082 24.5791 32.0275 24.6074 32.0408 24.6387C32.0545 24.6708 32.0616 24.7054 32.0616 24.7403C32.0616 24.7753 32.0545 24.8098 32.0408 24.842C32.0272 24.8731 32.0079 24.9014 31.9839 24.9253C31.9593 24.949 31.9306 24.968 31.8993 24.9816C31.8663 24.9956 31.8309 25.0027 31.7951 25.0025C31.759 25.0027 31.7231 24.9956 31.6897 24.9816C31.658 24.9683 31.6291 24.9493 31.6044 24.9253C31.5804 24.9005 31.5614 24.8712 31.5483 24.8392C31.5346 24.8071 31.5275 24.7725 31.5275 24.7376C31.5275 24.7027 31.5346 24.6681 31.5483 24.636C31.5616 24.6047 31.5809 24.5764 31.6052 24.5526C31.6296 24.5283 31.6586 24.5091 31.6905 24.4964C31.7239 24.4823 31.7598 24.4752 31.7959 24.4755L31.7951 24.4782ZM7.19362 23.5394C7.19362 23.0759 7.49728 22.6951 7.99359 22.6951C8.46788 22.6951 8.78793 23.0595 8.78793 23.5394C8.78793 24.0193 8.46788 24.3837 7.99359 24.3837C7.49728 24.3837 7.19362 24.003 7.19362 23.5394ZM9.32858 23.5394V22.2204H8.75515V22.5417C8.57328 22.3042 8.29741 22.1553 7.92225 22.1553C7.18318 22.1553 6.60316 22.735 6.60316 23.5401C6.60316 24.3452 7.18286 24.9249 7.92225 24.9249C8.29725 24.9249 8.57328 24.7758 8.75515 24.5385V24.8587H9.32794V23.5394H9.32858ZM28.7039 23.5394C28.7039 23.0759 29.0075 22.6951 29.504 22.6951C29.9788 22.6951 30.2983 23.0595 30.2983 23.5394C30.2983 24.0193 29.9788 24.3837 29.504 24.3837C29.0077 24.3837 28.7039 24.003 28.7039 23.5394ZM30.8395 23.5394V21.1616H30.2656V22.5417C30.0837 22.3042 29.8078 22.1553 29.4327 22.1553C28.6936 22.1553 28.1136 22.735 28.1136 23.5401C28.1136 24.3452 28.6933 24.9249 29.4327 24.9249C29.8078 24.9249 30.0837 24.7758 30.2656 24.5385V24.8587H30.8395V23.5394ZM16.4455 22.668C16.8151 22.668 17.0524 22.8997 17.113 23.3076H15.7447C15.8059 22.9268 16.0371 22.668 16.4457 22.668H16.4455ZM16.4571 22.1538C15.6843 22.1538 15.1436 22.7162 15.1436 23.5386C15.1436 24.3772 15.706 24.9234 16.4955 24.9234C16.8927 24.9234 17.2564 24.8243 17.5765 24.5539L17.2955 24.1289C17.0744 24.3057 16.7929 24.4048 16.5283 24.4048C16.1587 24.4048 15.8223 24.2337 15.7396 23.7589H17.6976C17.7032 23.6876 17.709 23.6156 17.709 23.5385C17.7032 22.7163 17.1949 22.1537 16.4568 22.1537L16.4571 22.1538ZM23.38 23.5385C23.38 23.0749 23.6836 22.6942 24.1799 22.6942C24.6542 22.6942 24.9743 23.0586 24.9743 23.5385C24.9743 24.0184 24.6542 24.3828 24.1799 24.3828C23.6836 24.3828 23.3798 24.002 23.3798 23.5385H23.38ZM25.5148 23.5385V22.2204H24.9417V22.5417C24.7592 22.3042 24.4839 22.1553 24.1088 22.1553C23.3697 22.1553 22.7897 22.735 22.7897 23.5401C22.7897 24.3452 23.3694 24.9249 24.1088 24.9249C24.4839 24.9249 24.7592 24.7758 24.9417 24.5385V24.8587H25.5149V23.5394L25.5148 23.5385ZM20.1417 23.5385C20.1417 24.3384 20.6986 24.9233 21.5485 24.9233C21.9457 24.9233 22.2103 24.8349 22.4965 24.6088L22.2211 24.1453C22.0058 24.3 21.7797 24.3828 21.5302 24.3828C21.0725 24.3771 20.7359 24.0462 20.7359 23.5385C20.7359 23.0308 21.0725 22.6999 21.5302 22.6942C21.7791 22.6942 22.0051 22.7769 22.2211 22.9316L22.4965 22.4681C22.2098 22.242 21.9452 22.1537 21.5485 22.1537C20.6986 22.1537 20.1417 22.7383 20.1417 23.5385ZM27.5341 22.1537C27.2032 22.1537 26.9878 22.3084 26.8388 22.5401V22.2204H26.2706V24.8572H26.8446V23.3791C26.8446 22.9427 27.0321 22.7003 27.407 22.7003C27.5297 22.6985 27.6516 22.721 27.7656 22.7666L27.9423 22.2261C27.8154 22.1762 27.6499 22.1542 27.5337 22.1542L27.5341 22.1537ZM12.1636 22.43C11.8877 22.2482 11.5076 22.1542 11.0882 22.1542C10.4202 22.1542 9.99005 22.4744 9.99005 22.9983C9.99005 23.4283 10.3103 23.6935 10.8999 23.7763L11.1708 23.8148C11.4852 23.859 11.6337 23.9417 11.6337 24.0907C11.6337 24.2946 11.4248 24.4109 11.0326 24.4109C10.6355 24.4109 10.3488 24.284 10.1555 24.135L9.8861 24.5822C10.2005 24.8138 10.5977 24.9244 11.0278 24.9244C11.7894 24.9244 12.2307 24.5658 12.2307 24.0637C12.2307 23.6002 11.8834 23.3577 11.3095 23.275L11.0392 23.2358C10.791 23.2036 10.5921 23.1537 10.5921 22.9769C10.5921 22.7841 10.7796 22.6681 11.0942 22.6681C11.4308 22.6681 11.7566 22.7951 11.9163 22.8942L12.1645 22.4307L12.1636 22.43ZM19.5625 22.1546C19.2317 22.1546 19.0162 22.3094 18.8679 22.541V22.2204H18.2997V24.8572H18.8731V23.3791C18.8731 22.9427 19.0606 22.7003 19.4354 22.7003C19.5582 22.6985 19.68 22.721 19.794 22.7666L19.9708 22.2261C19.8438 22.1762 19.6783 22.1542 19.5622 22.1542L19.5625 22.1546ZM14.6692 22.2204H13.7315V21.4204H13.1518V22.2204H12.617V22.7445H13.1518V23.9474C13.1518 24.5592 13.3893 24.9236 14.0676 24.9236C14.3165 24.9236 14.6032 24.8465 14.785 24.7197L14.6194 24.2287C14.4483 24.3278 14.2608 24.3778 14.1117 24.3778C13.825 24.3778 13.7315 24.2011 13.7315 23.9364V22.7449H14.6692V22.2204ZM6.0961 24.8579V23.203C6.0961 22.5798 5.69892 22.1604 5.05866 22.1548C4.72206 22.1492 4.37486 22.2539 4.13177 22.624C3.94989 22.3315 3.66326 22.1548 3.2603 22.1548C2.97865 22.1548 2.70343 22.2375 2.48797 22.5464V22.2204H1.91406V24.8572H2.49247V23.3952C2.49247 22.9374 2.74632 22.6942 3.13835 22.6942C3.51914 22.6942 3.71178 22.9424 3.71178 23.3894V24.8569H4.29147V23.3948C4.29147 22.9371 4.55609 22.6938 4.93671 22.6938C5.32826 22.6938 5.51512 22.9421 5.51512 23.389V24.8566L6.0961 24.8579Z" fill="#231F20"/>
<path d="M32.0772 16.0864V15.7008H31.9767L31.8606 15.9654L31.7451 15.7008H31.6443V16.0864H31.7157V15.7959L31.8243 16.0465H31.8982L32.0068 15.7953V16.0864H32.0775H32.0772ZM31.4401 16.0864V15.7668H31.5686V15.7018H31.2402V15.7668H31.3688V16.0864H31.4395H31.4401Z" fill="#F79410"/>
<path d="M20.6645 17.7402H11.9746V2.12323H20.6647L20.6645 17.7402Z" fill="#FF5F00"/>
<path d="M12.5251 9.93138C12.5251 6.76348 14.0084 3.9415 16.3181 2.12289C14.5697 0.744274 12.4073 -0.00395042 10.1808 -0.000660584C4.69602 -0.000660584 0.25 4.446 0.25 9.93138C0.25 15.4168 4.69602 19.8634 10.1808 19.8634C12.4073 19.8667 14.5699 19.1185 16.3183 17.7399C14.0087 15.9216 12.5251 13.0994 12.5251 9.93138Z" fill="#EB001B"/>
<path d="M32.3874 9.93205C32.3874 15.4174 27.9414 19.8641 22.4567 19.8641C20.2299 19.8673 18.0671 19.1191 16.3184 17.7405C18.6288 15.9219 20.1121 13.1001 20.1121 9.93205C20.1121 6.76399 18.6288 3.94217 16.3184 2.12356C18.0671 0.744986 20.2298 -0.00322137 22.4565 1.04257e-05C27.9413 1.04257e-05 32.3873 4.44667 32.3873 9.93205" fill="#F79E1B"/>
</g>
<defs>
<clipPath id="clip0">
<rect width="32.1337" height="25" fill="white" transform="translate(0.25)"/>
</clipPath>
</defs>
</svg>
