<svg width="60" height="22" viewBox="0 0 60 22" fill="none" xmlns="http://www.w3.org/2000/svg">
<path d="M31.3924 0H30.7812V21.1836H31.3924V17.1077H39.112V14.6398H33.1724V11.7979H38.2499V9.31141H33.1724V6.56237H39.112V4.07592H31.3924V0Z" fill="#88BC40"/>
<path d="M7.36408 12.1743L5.17042 8.62355L2.35864 4.22695L2.33076 4.1828H0V17.2146H2.58637V9.2045L4.51512 12.3253L7.61737 17.2146H9.96672V4.1828H7.36408V12.1743Z" fill="#19161B"/>
<path d="M11.4219 17.2146H19.9641V14.7467H14.0245V11.9047H19.102V9.41829H14.0245V6.66925H19.9641V4.1828H11.4219V17.2146Z" fill="#19161B"/>
<path d="M21.0117 6.68784H23.9978V17.2146H26.6004V6.68784H29.5679V4.1828H21.0117V6.68784Z" fill="#19161B"/>
<path d="M47.7772 12.0883L45.5835 8.53988L42.7717 4.14328L42.7438 4.0968H40.4131V17.1286H42.9971V9.1185L44.9259 12.2393L48.0305 17.1286H50.3798V4.0968H47.7772V12.0883Z" fill="#88BC40"/>
<path d="M51.4443 4.0968V6.60184H54.4304V17.1286H57.033V6.60184H60.0005V4.0968H51.4443Z" fill="#88BC40"/>
</svg>
