<svg width="92" height="16" viewBox="0 0 92 16" fill="none" xmlns="http://www.w3.org/2000/svg">
<path d="M80.8428 6.52034C80.3511 6.86303 79.6376 7.03244 78.6612 7.03244H78.2375H77.693L78.4355 3.02245H78.8117H79.1475C79.9579 3.02245 80.5499 3.15289 80.9578 3.41762C81.2766 3.62524 81.6544 4.03623 81.6544 4.81616C81.6544 5.75585 81.2148 6.26139 80.8428 6.52034ZM23.0828 11.553H15.5896L16.0739 8.93189H20.7739L21.308 5.97968H16.6532L17.1032 3.38559H24.5833L23.0828 11.553ZM84.8794 1.13573C83.7776 0.380506 82.1105 0 79.9247 0H74.2001L72.0722 11.5534H64.5732L65.054 8.93228H69.5719L70.1091 5.98817L65.5939 5.99627L66.0775 3.38636H70.73L71.349 0.000385698H61.8981L59.8782 10.9606H56.4127L58.4473 0.000385698H53.5065L51.4866 10.9606H48.1076L50.144 0.000385698H45.2082L43.0749 11.5538H35.5226L35.9985 8.93266H40.5368L41.0713 6.00553L36.5399 6.00129L37.0211 3.38636H41.7254L42.3413 0.000385698H12.8975L11.2215 9.15611L7.8826 0H2.7581L0 14.9413H4.89373L6.56279 5.53395L9.80328 14.9413H27.3437L29.4758 3.38598H32.2204L30.0871 14.9413H76.2412L77.578 7.64642L79.7449 14.9413H84.6413L82.398 8.9809L82.9101 8.87014C84.0385 8.62856 84.9219 8.10797 85.5347 7.32805C86.1487 6.54079 86.4605 5.53009 86.4605 4.31602C86.4609 2.90204 85.9445 1.8624 84.8794 1.13573Z" fill="#8DC640"/>
<path d="M88.9135 13.1742L89.5803 13.1395C89.7216 13.1329 89.8331 13.1117 89.9111 13.0781C89.989 13.0453 90.0481 12.9951 90.0859 12.9276C90.1237 12.8604 90.1418 12.7898 90.1368 12.7142C90.131 12.6023 90.0859 12.5131 90.0021 12.4448C89.918 12.3773 89.7883 12.3495 89.6143 12.3576L88.8722 12.3954L88.9135 13.1742ZM88.6669 14.5009L88.5469 12.1507L89.5896 12.0983C89.798 12.0875 89.9574 12.1006 90.0689 12.1376C90.1808 12.1739 90.2707 12.2441 90.3417 12.3479C90.4124 12.4514 90.4517 12.5664 90.4567 12.696C90.4664 12.8628 90.4189 13.0055 90.317 13.1259C90.2152 13.2452 90.0527 13.3266 89.8293 13.3691C89.913 13.4053 89.9782 13.4401 90.0222 13.476C90.1175 13.5547 90.2086 13.655 90.2958 13.7762L90.7342 14.3952L90.3468 14.4149L90.011 13.9418C89.913 13.8048 89.8327 13.7006 89.7702 13.6288C89.7081 13.557 89.6521 13.508 89.6043 13.4802C89.5576 13.4524 89.5074 13.4343 89.4599 13.4243C89.4237 13.4189 89.3662 13.4181 89.2859 13.4223L88.927 13.4405L88.9787 14.4851L88.6669 14.5009Z" fill="#8DC640"/>
<path d="M87.6482 13.3637C87.6243 12.8774 87.7894 12.4113 88.1155 12.0508C88.4416 11.6896 88.8901 11.4762 89.3771 11.4515C90.3797 11.3994 91.2376 12.1739 91.2893 13.1777C91.2908 13.2085 91.2927 13.2413 91.2927 13.2711C91.2927 14.2343 90.534 15.0412 89.5619 15.0922C88.5578 15.1431 87.7007 14.3678 87.6482 13.3637ZM89.3562 11.0768C88.7716 11.108 88.2313 11.3635 87.8388 11.7992C87.446 12.2345 87.2453 12.7979 87.2754 13.3841C87.3387 14.5928 88.3726 15.5255 89.582 15.465C90.7899 15.4024 91.7246 14.3678 91.6621 13.1591V13.158C91.6011 11.9489 90.5672 11.0154 89.3562 11.0768Z" fill="#8DC640"/>
</svg>
