<svg width="15" height="15" viewBox="0 0 15 15" fill="none" xmlns="http://www.w3.org/2000/svg">
<circle cx="7.32558" cy="7.32558" r="7.32558" fill="#EF233C"/>
<circle cx="7.32559" cy="7.32547" r="6.21512" stroke="white"/>
<path d="M8.00859 4.84381L8.11889 5.18605L8.47843 5.19041L10.6736 5.21705L8.89292 6.60604L8.62384 6.81593L8.72125 7.143L9.3711 9.32493L7.62399 8.02632L7.32577 7.80466L7.02751 8.02628L5.27996 9.32478L5.92987 7.14266L6.02728 6.8156L5.7582 6.6057L3.97757 5.21671L6.1727 5.19008L6.53224 5.18571L6.64253 4.84348L7.32551 2.72419L8.00859 4.84381ZM11.1871 4.81643C11.1872 4.81641 11.1872 4.81638 11.1872 4.81636L11.1871 4.81643Z" fill="white" stroke="white"/>
</svg>
