<svg width="390" height="64" viewBox="0 0 390 64" fill="none" xmlns="http://www.w3.org/2000/svg">
<path d="M87.9128 41.42C86.2514 41.42 84.9914 40.9627 84.1328 40.048C83.2928 39.1147 82.8728 37.8453 82.8728 36.24V30.976H80.9688V27.56H82.8728V23.528H87.8008V27.56H90.8808V30.976H87.8008V35.568C87.8008 36.296 87.9314 36.8187 88.1928 37.136C88.4728 37.4533 88.9581 37.612 89.6488 37.612C90.2648 37.612 90.8808 37.444 91.4968 37.108V40.776C91.0114 41 90.4888 41.1587 89.9288 41.252C89.3874 41.364 88.7154 41.42 87.9128 41.42ZM100.481 41.42C98.8195 41.42 97.3635 41.1213 96.1128 40.524C94.8622 39.908 93.8915 39.068 93.2008 38.004C92.5288 36.9213 92.1928 35.68 92.1928 34.28C92.1928 32.88 92.5288 31.648 93.2008 30.584C93.8915 29.5013 94.8622 28.6613 96.1128 28.064C97.3635 27.448 98.8195 27.14 100.481 27.14C102.142 27.14 103.598 27.448 104.849 28.064C106.099 28.6613 107.061 29.5013 107.733 30.584C108.423 31.648 108.769 32.88 108.769 34.28C108.769 35.68 108.423 36.9213 107.733 38.004C107.061 39.068 106.099 39.908 104.849 40.524C103.598 41.1213 102.142 41.42 100.481 41.42ZM100.481 37.584C101.47 37.584 102.254 37.2947 102.833 36.716C103.43 36.1187 103.729 35.3067 103.729 34.28C103.729 33.2533 103.43 32.4507 102.833 31.872C102.254 31.2747 101.47 30.976 100.481 30.976C99.4915 30.976 98.6982 31.2747 98.1008 31.872C97.5222 32.4507 97.2328 33.2533 97.2328 34.28C97.2328 35.3067 97.5222 36.1187 98.1008 36.716C98.6982 37.2947 99.4915 37.584 100.481 37.584ZM110.718 27.56H115.478V28.904C116.728 27.728 118.315 27.14 120.238 27.14C121.638 27.14 122.879 27.4387 123.962 28.036C125.044 28.6147 125.884 29.4453 126.482 30.528C127.079 31.592 127.378 32.8333 127.378 34.252C127.378 35.652 127.079 36.9027 126.482 38.004C125.884 39.0867 125.044 39.9267 123.962 40.524C122.898 41.1213 121.656 41.42 120.238 41.42C119.342 41.42 118.483 41.28 117.662 41C116.859 40.7387 116.187 40.3747 115.646 39.908V47.132H110.718V27.56ZM118.95 37.584C119.958 37.584 120.77 37.2853 121.386 36.688C122.002 36.0907 122.31 35.2787 122.31 34.252C122.31 33.2253 122.002 32.4227 121.386 31.844C120.77 31.2467 119.958 30.948 118.95 30.948C118.203 30.948 117.531 31.144 116.934 31.536C116.336 31.9093 115.907 32.4227 115.646 33.076V35.456C115.907 36.1093 116.336 36.632 116.934 37.024C117.531 37.3973 118.203 37.584 118.95 37.584ZM128.779 30.556H138.747V34.476H128.779V30.556ZM148.162 41.42C145.698 41.42 143.747 40.804 142.31 39.572C140.872 38.34 140.154 36.5853 140.154 34.308C140.154 32.0307 140.872 30.2667 142.31 29.016C143.766 27.7653 145.726 27.14 148.19 27.14C149.291 27.14 150.318 27.252 151.27 27.476C152.24 27.6813 153.043 27.98 153.678 28.372V32.208C152.539 31.3867 151.036 30.976 149.17 30.976C147.975 30.976 147.014 31.256 146.286 31.816C145.576 32.3573 145.222 33.188 145.222 34.308C145.222 35.4467 145.576 36.2867 146.286 36.828C146.995 37.3507 147.947 37.612 149.142 37.612C150.952 37.612 152.52 37.1827 153.846 36.324V40.132C152.427 40.9907 150.532 41.42 148.162 41.42ZM160.739 41.42C159.059 41.42 157.696 41.0187 156.651 40.216C155.624 39.3947 155.111 38.256 155.111 36.8C155.111 35.288 155.605 34.1307 156.595 33.328C157.603 32.5067 159.04 32.096 160.907 32.096C161.635 32.096 162.363 32.18 163.091 32.348C163.819 32.4973 164.444 32.7027 164.967 32.964V32.684C164.967 31.2467 163.791 30.528 161.439 30.528C159.796 30.528 158.293 30.8453 156.931 31.48V28.092C157.528 27.812 158.312 27.588 159.283 27.42C160.253 27.2333 161.261 27.14 162.307 27.14C164.808 27.14 166.693 27.644 167.963 28.652C169.251 29.6413 169.895 31.032 169.895 32.824V41H165.275V39.852C164.771 40.3373 164.136 40.72 163.371 41C162.605 41.28 161.728 41.42 160.739 41.42ZM162.195 38.396C162.773 38.396 163.315 38.284 163.819 38.06C164.323 37.8173 164.705 37.5093 164.967 37.136V35.96C164.164 35.4187 163.249 35.148 162.223 35.148C161.569 35.148 161.065 35.288 160.711 35.568C160.356 35.848 160.179 36.2587 160.179 36.8C160.179 37.304 160.347 37.696 160.683 37.976C161.037 38.256 161.541 38.396 162.195 38.396ZM177.654 41.42C176.572 41.42 175.442 41.308 174.266 41.084C173.09 40.8787 172.157 40.58 171.466 40.188V36.576C172.232 37.024 173.146 37.3973 174.21 37.696C175.293 37.976 176.282 38.116 177.178 38.116C177.832 38.116 178.308 38.0693 178.606 37.976C178.905 37.8827 179.054 37.696 179.054 37.416C179.054 37.192 178.952 37.0147 178.746 36.884C178.56 36.7347 178.205 36.5853 177.682 36.436C177.178 36.268 176.59 36.0907 175.918 35.904C174.78 35.568 173.884 35.2227 173.23 34.868C172.577 34.5133 172.092 34.0653 171.774 33.524C171.457 32.9827 171.298 32.3013 171.298 31.48C171.298 30.024 171.868 28.9413 173.006 28.232C174.164 27.504 175.741 27.14 177.738 27.14C178.709 27.14 179.726 27.2427 180.79 27.448C181.873 27.6533 182.685 27.924 183.226 28.26V31.816C182.666 31.4427 181.92 31.1347 180.986 30.892C180.072 30.6493 179.213 30.528 178.41 30.528C177.776 30.528 177.281 30.5933 176.926 30.724C176.572 30.836 176.394 31.0413 176.394 31.34C176.394 31.62 176.572 31.8347 176.926 31.984C177.281 32.1333 177.916 32.32 178.83 32.544C179.428 32.6933 179.68 32.7587 179.586 32.74C180.781 33.0573 181.705 33.412 182.358 33.804C183.012 34.196 183.469 34.6627 183.73 35.204C184.01 35.7267 184.15 36.3987 184.15 37.22C184.15 38.508 183.59 39.5347 182.47 40.3C181.369 41.0467 179.764 41.42 177.654 41.42ZM188.736 25.768C187.99 25.768 187.364 25.5253 186.86 25.04C186.356 24.5547 186.104 23.9387 186.104 23.192C186.104 22.464 186.356 21.8573 186.86 21.372C187.364 20.868 187.99 20.616 188.736 20.616C189.464 20.616 190.08 20.868 190.584 21.372C191.107 21.8573 191.368 22.464 191.368 23.192C191.368 23.92 191.107 24.536 190.584 25.04C190.08 25.5253 189.464 25.768 188.736 25.768ZM186.272 27.56H191.2V41H186.272V27.56ZM193.897 27.56H198.657V29.044C199.236 28.4093 199.936 27.9333 200.757 27.616C201.579 27.2987 202.437 27.14 203.333 27.14C205.219 27.14 206.609 27.6347 207.505 28.624C208.42 29.5947 208.877 30.92 208.877 32.6V41H203.949V33.244C203.949 31.732 203.259 30.976 201.877 30.976C201.243 30.976 200.664 31.1253 200.141 31.424C199.619 31.704 199.18 32.1427 198.825 32.74V41H193.897V27.56ZM218.578 41.42C216.917 41.42 215.461 41.1213 214.21 40.524C212.96 39.908 211.989 39.068 211.298 38.004C210.626 36.9213 210.29 35.68 210.29 34.28C210.29 32.88 210.626 31.648 211.298 30.584C211.989 29.5013 212.96 28.6613 214.21 28.064C215.461 27.448 216.917 27.14 218.578 27.14C220.24 27.14 221.696 27.448 222.946 28.064C224.197 28.6613 225.158 29.5013 225.83 30.584C226.521 31.648 226.866 32.88 226.866 34.28C226.866 35.68 226.521 36.9213 225.83 38.004C225.158 39.068 224.197 39.908 222.946 40.524C221.696 41.1213 220.24 41.42 218.578 41.42ZM218.578 37.584C219.568 37.584 220.352 37.2947 220.93 36.716C221.528 36.1187 221.826 35.3067 221.826 34.28C221.826 33.2533 221.528 32.4507 220.93 31.872C220.352 31.2747 219.568 30.976 218.578 30.976C217.589 30.976 216.796 31.2747 216.198 31.872C215.62 32.4507 215.33 33.2533 215.33 34.28C215.33 35.3067 215.62 36.1187 216.198 36.716C216.796 37.2947 217.589 37.584 218.578 37.584ZM235.853 41.42C233.389 41.42 231.439 40.804 230.001 39.572C228.564 38.34 227.845 36.5853 227.845 34.308C227.845 32.0307 228.564 30.2667 230.001 29.016C231.457 27.7653 233.417 27.14 235.881 27.14C236.983 27.14 238.009 27.252 238.961 27.476C239.932 27.6813 240.735 27.98 241.369 28.372V32.208C240.231 31.3867 238.728 30.976 236.861 30.976C235.667 30.976 234.705 31.256 233.977 31.816C233.268 32.3573 232.913 33.188 232.913 34.308C232.913 35.4467 233.268 36.2867 233.977 36.828C234.687 37.3507 235.639 37.612 236.833 37.612C238.644 37.612 240.212 37.1827 241.537 36.324V40.132C240.119 40.9907 238.224 41.42 235.853 41.42ZM248.43 41.42C246.75 41.42 245.388 41.0187 244.342 40.216C243.316 39.3947 242.802 38.256 242.802 36.8C242.802 35.288 243.297 34.1307 244.286 33.328C245.294 32.5067 246.732 32.096 248.598 32.096C249.326 32.096 250.054 32.18 250.782 32.348C251.51 32.4973 252.136 32.7027 252.658 32.964V32.684C252.658 31.2467 251.482 30.528 249.13 30.528C247.488 30.528 245.985 30.8453 244.622 31.48V28.092C245.22 27.812 246.004 27.588 246.974 27.42C247.945 27.2333 248.953 27.14 249.998 27.14C252.5 27.14 254.385 27.644 255.654 28.652C256.942 29.6413 257.586 31.032 257.586 32.824V41H252.966V39.852C252.462 40.3373 251.828 40.72 251.062 41C250.297 41.28 249.42 41.42 248.43 41.42ZM249.886 38.396C250.465 38.396 251.006 38.284 251.51 38.06C252.014 37.8173 252.397 37.5093 252.658 37.136V35.96C251.856 35.4187 250.941 35.148 249.914 35.148C249.261 35.148 248.757 35.288 248.402 35.568C248.048 35.848 247.87 36.2587 247.87 36.8C247.87 37.304 248.038 37.696 248.374 37.976C248.729 38.256 249.233 38.396 249.886 38.396ZM259.96 27.56H264.72V29.044C265.299 28.4093 265.999 27.9333 266.82 27.616C267.641 27.2987 268.5 27.14 269.396 27.14C271.281 27.14 272.672 27.6347 273.568 28.624C274.483 29.5947 274.94 30.92 274.94 32.6V41H270.012V33.244C270.012 31.732 269.321 30.976 267.94 30.976C267.305 30.976 266.727 31.1253 266.204 31.424C265.681 31.704 265.243 32.1427 264.888 32.74V41H259.96V27.56ZM281.981 41.42C280.301 41.42 278.938 41.0187 277.893 40.216C276.866 39.3947 276.353 38.256 276.353 36.8C276.353 35.288 276.848 34.1307 277.837 33.328C278.845 32.5067 280.282 32.096 282.149 32.096C282.877 32.096 283.605 32.18 284.333 32.348C285.061 32.4973 285.686 32.7027 286.209 32.964V32.684C286.209 31.2467 285.033 30.528 282.681 30.528C281.038 30.528 279.536 30.8453 278.173 31.48V28.092C278.77 27.812 279.554 27.588 280.525 27.42C281.496 27.2333 282.504 27.14 283.549 27.14C286.05 27.14 287.936 27.644 289.205 28.652C290.493 29.6413 291.137 31.032 291.137 32.824V41H286.517V39.852C286.013 40.3373 285.378 40.72 284.613 41C283.848 41.28 282.97 41.42 281.981 41.42ZM283.437 38.396C284.016 38.396 284.557 38.284 285.061 38.06C285.565 37.8173 285.948 37.5093 286.209 37.136V35.96C285.406 35.4187 284.492 35.148 283.465 35.148C282.812 35.148 282.308 35.288 281.953 35.568C281.598 35.848 281.421 36.2587 281.421 36.8C281.421 37.304 281.589 37.696 281.925 37.976C282.28 38.256 282.784 38.396 283.437 38.396ZM300.091 41.42C298.691 41.42 297.449 41.1307 296.367 40.552C295.284 39.9547 294.444 39.124 293.847 38.06C293.249 36.9773 292.951 35.7267 292.951 34.308C292.951 32.908 293.249 31.6667 293.847 30.584C294.444 29.4827 295.275 28.6333 296.339 28.036C297.421 27.4387 298.672 27.14 300.091 27.14C301.024 27.14 301.883 27.2707 302.667 27.532C303.451 27.7933 304.123 28.1667 304.683 28.652V20.308H309.611V41H304.851V39.656C303.6 40.832 302.013 41.42 300.091 41.42ZM301.379 37.612C302.125 37.612 302.797 37.4253 303.395 37.052C303.992 36.66 304.421 36.1373 304.683 35.484V33.104C304.421 32.4507 303.992 31.9373 303.395 31.564C302.797 31.172 302.125 30.976 301.379 30.976C300.371 30.976 299.559 31.2747 298.943 31.872C298.327 32.4693 298.019 33.2813 298.019 34.308C298.019 35.3347 298.327 36.1467 298.943 36.744C299.559 37.3227 300.371 37.612 301.379 37.612ZM316.79 41.42C315.11 41.42 313.747 41.0187 312.702 40.216C311.675 39.3947 311.162 38.256 311.162 36.8C311.162 35.288 311.656 34.1307 312.646 33.328C313.654 32.5067 315.091 32.096 316.958 32.096C317.686 32.096 318.414 32.18 319.142 32.348C319.87 32.4973 320.495 32.7027 321.018 32.964V32.684C321.018 31.2467 319.842 30.528 317.49 30.528C315.847 30.528 314.344 30.8453 312.982 31.48V28.092C313.579 27.812 314.363 27.588 315.334 27.42C316.304 27.2333 317.312 27.14 318.358 27.14C320.859 27.14 322.744 27.644 324.014 28.652C325.302 29.6413 325.946 31.032 325.946 32.824V41H321.326V39.852C320.822 40.3373 320.187 40.72 319.422 41C318.656 41.28 317.779 41.42 316.79 41.42ZM318.246 38.396C318.824 38.396 319.366 38.284 319.87 38.06C320.374 37.8173 320.756 37.5093 321.018 37.136V35.96C320.215 35.4187 319.3 35.148 318.274 35.148C317.62 35.148 317.116 35.288 316.762 35.568C316.407 35.848 316.23 36.2587 316.23 36.8C316.23 37.304 316.398 37.696 316.734 37.976C317.088 38.256 317.592 38.396 318.246 38.396ZM329.523 41C329.038 41 328.618 40.832 328.263 40.496C327.927 40.16 327.759 39.7493 327.759 39.264C327.759 38.76 327.927 38.3307 328.263 37.976C328.618 37.6213 329.038 37.444 329.523 37.444C330.027 37.444 330.447 37.6213 330.783 37.976C331.138 38.3307 331.315 38.76 331.315 39.264C331.315 39.7493 331.138 40.16 330.783 40.496C330.447 40.832 330.027 41 329.523 41ZM340.716 41.42C338.252 41.42 336.302 40.804 334.864 39.572C333.427 38.34 332.708 36.5853 332.708 34.308C332.708 32.0307 333.427 30.2667 334.864 29.016C336.32 27.7653 338.28 27.14 340.744 27.14C341.846 27.14 342.872 27.252 343.824 27.476C344.795 27.6813 345.598 27.98 346.232 28.372V32.208C345.094 31.3867 343.591 30.976 341.724 30.976C340.53 30.976 339.568 31.256 338.84 31.816C338.131 32.3573 337.776 33.188 337.776 34.308C337.776 35.4467 338.131 36.2867 338.84 36.828C339.55 37.3507 340.502 37.612 341.696 37.612C343.507 37.612 345.075 37.1827 346.4 36.324V40.132C344.982 40.9907 343.087 41.42 340.716 41.42ZM355.68 41.42C354.019 41.42 352.563 41.1213 351.312 40.524C350.061 39.908 349.091 39.068 348.4 38.004C347.728 36.9213 347.392 35.68 347.392 34.28C347.392 32.88 347.728 31.648 348.4 30.584C349.091 29.5013 350.061 28.6613 351.312 28.064C352.563 27.448 354.019 27.14 355.68 27.14C357.341 27.14 358.797 27.448 360.048 28.064C361.299 28.6613 362.26 29.5013 362.932 30.584C363.623 31.648 363.968 32.88 363.968 34.28C363.968 35.68 363.623 36.9213 362.932 38.004C362.26 39.068 361.299 39.908 360.048 40.524C358.797 41.1213 357.341 41.42 355.68 41.42ZM355.68 37.584C356.669 37.584 357.453 37.2947 358.032 36.716C358.629 36.1187 358.928 35.3067 358.928 34.28C358.928 33.2533 358.629 32.4507 358.032 31.872C357.453 31.2747 356.669 30.976 355.68 30.976C354.691 30.976 353.897 31.2747 353.3 31.872C352.721 32.4507 352.432 33.2533 352.432 34.28C352.432 35.3067 352.721 36.1187 353.3 36.716C353.897 37.2947 354.691 37.584 355.68 37.584ZM365.917 27.56H370.481V29.016C371.041 28.4187 371.685 27.9613 372.413 27.644C373.141 27.308 373.916 27.14 374.737 27.14C375.745 27.14 376.548 27.2893 377.145 27.588C377.761 27.8867 378.256 28.3347 378.629 28.932C379.189 28.372 379.87 27.9333 380.673 27.616C381.476 27.2987 382.288 27.14 383.109 27.14C384.882 27.14 386.142 27.5973 386.889 28.512C387.636 29.408 388.009 30.7053 388.009 32.404V41H383.305V33.104C383.305 32.3573 383.165 31.816 382.885 31.48C382.605 31.144 382.138 30.976 381.485 30.976C380.645 30.976 379.964 31.2747 379.441 31.872C379.46 32.1893 379.469 32.6747 379.469 33.328V41H374.765V32.908C374.765 32.2173 374.644 31.7227 374.401 31.424C374.158 31.1253 373.729 30.976 373.113 30.976C372.161 30.976 371.34 31.508 370.649 32.572V41H365.917V27.56Z" fill="#EF233C"/>
<path d="M60.7642 38.8482C59.4951 21.5069 44.655 9.87645 40.3016 6.8207C39.7192 6.41195 38.9126 6.70433 38.7172 7.38845L37.0376 13.2671C37.0376 13.2671 31.7159 7.05845 21.0725 2.02945C20.1855 1.61033 19.2657 2.55958 19.707 3.43583L21.5075 7.01095C11.9679 2.19933 4.27 0.530831 1.20138 0.0147064C0.484632 -0.105793 -0.126992 0.532956 0.0227576 1.24421C0.604382 4.00895 2.35126 10.4174 7.012 17.4086L6.94775 21.8979L15.6424 37.0676L12.7102 41.2621C18.0857 54.8638 25.7062 62.9405 37.9312 63.0087C47.2807 63.0607 54.6856 58.4222 58.2803 50.4522L58.8703 50.0782C60.3526 46.6547 61.0551 42.8228 60.7642 38.8482Z" fill="#EF233C"/>
<path d="M18.283 15.9078L21.5071 21.5501L15.7327 22.3749C15.0187 22.4769 14.6251 23.2596 14.9691 23.8936L21.6865 36.2773L46.985 25.4833C46.985 25.4833 33.3777 15.1748 19.2486 14.3539C18.4252 14.3062 17.8739 15.1918 18.283 15.9078Z" fill="#8B2B37"/>
<path d="M56.7095 41.2219C56.7095 45.173 55.48 48.8369 53.3826 51.8519C50.0164 56.691 44.4145 58.6919 38.073 58.6919C27.7804 58.6919 20.5835 51.5145 20.5835 41.2218C20.5835 34.8823 22.6018 29.2821 27.4383 25.9154C30.4541 23.8162 34.1198 22.5853 38.0729 22.5853C48.3656 22.5854 56.7095 30.9293 56.7095 41.2219Z" fill="#FFC263"/>
<path d="M54.5532 39.5176C53.7779 31.784 47.5108 25.5169 39.7772 24.7417C35.7223 24.3352 31.9373 25.3982 28.8749 27.457C27.9212 28.0983 26.7407 26.9137 27.3947 25.9687L27.4384 25.9155C21.9039 29.7714 18.5515 36.5547 19.6414 44.0241C20.8109 52.0386 27.2564 58.484 35.2708 59.6535C42.7403 60.7435 49.5268 57.3864 53.3827 51.8519C53.3667 51.863 53.339 51.8843 53.323 51.8954C52.378 52.5494 51.1967 51.3738 51.8379 50.4199C53.8967 47.3575 54.9597 43.5726 54.5532 39.5176Z" fill="#FFAA5A"/>
<path d="M38.0729 55.717C46.0783 55.717 52.568 49.2273 52.568 41.2219C52.568 33.2165 46.0783 26.7268 38.0729 26.7268C30.0674 26.7268 23.5777 33.2165 23.5777 41.2219C23.5777 49.2273 30.0674 55.717 38.0729 55.717Z" fill="#FFF4D6"/>
<path d="M38.0729 53.6463C44.9347 53.6463 50.4972 48.0837 50.4972 41.2219C50.4972 34.3601 44.9347 28.7976 38.0729 28.7976C31.2111 28.7976 25.6485 34.3601 25.6485 41.2219C25.6485 48.0837 31.2111 53.6463 38.0729 53.6463Z" fill="white"/>
<path d="M48.4265 42.2573H38.0729C37.7979 42.2573 37.535 42.148 37.3409 41.9539L31.1287 35.7418C30.7242 35.3373 30.7242 34.6822 31.1287 34.2777C31.5332 33.8732 32.1884 33.8732 32.5929 34.2777L38.5017 40.1866H48.4266C48.9989 40.1866 49.462 40.6502 49.462 41.2219C49.4619 41.7937 48.9989 42.2573 48.4265 42.2573Z" fill="#4E3D4D"/>
<path d="M38.0728 32.939C37.5006 32.939 37.0375 32.4754 37.0375 31.9037V30.8683C37.0375 30.2965 37.5006 29.8329 38.0728 29.8329C38.6451 29.8329 39.1082 30.2965 39.1082 30.8683V31.9037C39.1082 32.4754 38.6452 32.939 38.0728 32.939Z" fill="#FF8B57"/>
<path d="M38.0728 52.6109C37.5006 52.6109 37.0375 52.1473 37.0375 51.5755V50.5402C37.0375 49.9684 37.5006 49.5048 38.0728 49.5048C38.6451 49.5048 39.1082 49.9684 39.1082 50.5402V51.5755C39.1082 52.1474 38.6452 52.6109 38.0728 52.6109Z" fill="#FF8B57"/>
<path d="M28.7546 42.2573H27.7192C27.147 42.2573 26.6838 41.7937 26.6838 41.2219C26.6838 40.6502 27.147 40.1865 27.7192 40.1865H28.7546C29.3268 40.1865 29.79 40.6502 29.79 41.2219C29.79 41.7937 29.3268 42.2573 28.7546 42.2573Z" fill="#FF8B57"/>
<path d="M38.0728 43.2927C39.2165 43.2927 40.1436 42.3656 40.1436 41.2219C40.1436 40.0783 39.2165 39.1512 38.0728 39.1512C36.9292 39.1512 36.0021 40.0783 36.0021 41.2219C36.0021 42.3656 36.9292 43.2927 38.0728 43.2927Z" fill="#FFAA5A"/>
<path d="M58.8703 50.0783L58.8115 50.0658C57.7245 49.881 56.6533 50.4118 56.1123 51.3725C52.4721 57.8353 45.4683 62.148 37.47 61.9206C28.828 61.6749 21.3002 55.8198 18.4657 47.6521C17.3187 44.347 17.1454 41.1888 17.594 38.2315C17.8448 36.579 17.5027 34.8929 16.6427 33.4597L7.01204 17.4086L3.95429 18.1731C3.36204 18.3212 3.02579 18.9427 3.22767 19.5188C4.22917 22.3768 7.38041 30.4018 13.2243 37.0805L8.27216 37.9059C7.62341 38.014 7.23066 38.6999 7.47554 39.3104C13.7962 55.0681 25.7065 63.9316 37.9313 63.9996C43.3665 64.0299 48.2935 62.1229 52.1739 58.9564C55.057 56.5231 57.4038 53.4646 58.8703 50.0783Z" fill="#A90F22"/>
<g clip-path="url(#clip0)">
<path d="M38.1019 61.7499C49.3892 61.7499 58.5394 52.5997 58.5394 41.3124C58.5394 30.0251 49.3892 20.8749 38.1019 20.8749C26.8146 20.8749 17.6644 30.0251 17.6644 41.3124C17.6644 52.5997 26.8146 61.7499 38.1019 61.7499Z" fill="#FDBA12"/>
<path d="M53.7493 41.3108V41.3124C53.7493 45.6189 52.0096 49.519 49.1945 52.3484L38.1115 56.9597C38.0972 56.9597 38.1258 56.9598 38.1115 56.9598C33.9121 56.9598 30.0895 55.3055 27.2789 52.613L22.4546 41.3124C22.4546 36.9535 24.236 33.013 27.1116 30.1757L38.1116 25.6655C42.3747 25.6767 46.2694 27.3938 49.0851 30.169L53.7493 41.3108Z" fill="white"/>
<path d="M38.1116 25.6655C42.3747 25.6768 46.2694 27.3939 49.0851 30.169L53.7494 41.3107V41.3123C53.7494 45.6189 52.0096 49.519 49.1946 52.3484L38.1116 56.9597V29.2215V25.6655Z" fill="#E9EDF5"/>
<path d="M38.1115 25.6655C38.0969 25.6655 38.1261 25.6655 38.1115 25.6655C33.8278 25.6655 29.9372 27.387 27.1115 30.1757L38.1115 41.2549V29.3373V25.6655Z" fill="#EF233C"/>
<path d="M22.4545 41.3123C22.4545 45.7549 24.3062 49.7648 27.2796 52.6131L38.1114 41.4288V41.3108L22.4545 41.3123Z" fill="#EF233C"/>
<path d="M49.085 30.1691L38.1115 41.3109H53.7493C53.7489 36.9497 51.9636 33.0064 49.085 30.1691Z" fill="#EF233C"/>
<path d="M38.1115 41.4288V53.2872V56.9591C42.4293 56.9473 46.3698 55.1866 49.1941 52.3482L38.1115 41.3407V41.4288Z" fill="#EF233C"/>
<path d="M38.1116 30.5347C44.0639 30.5347 48.8796 35.3599 48.8796 41.3122C48.8796 47.2645 44.0639 52.0898 38.1116 52.0898C32.1593 52.0898 27.3245 47.2646 27.3245 41.3122C27.3244 35.36 32.1592 30.5347 38.1116 30.5347Z" fill="white"/>
<path d="M48.8796 41.3122C48.8796 35.3632 44.0594 30.5399 38.1115 30.5348V52.0897C44.0594 52.0846 48.8796 47.2614 48.8796 41.3122Z" fill="#E9EDF5"/>
<path d="M38.1115 53.2873C31.5085 53.2873 26.1269 47.9154 26.1269 41.3122C26.1269 34.7091 31.5085 29.3372 38.1115 29.3372C41.3102 29.3372 44.3079 30.5828 46.5697 32.8446C48.8315 35.1064 50.0771 38.1135 50.0771 41.3122C50.0771 47.9153 44.7146 53.2873 38.1115 53.2873ZM38.1115 31.7322C32.8291 31.7322 28.5219 36.0298 28.5219 41.3122C28.5219 46.5947 32.8291 50.8923 38.1115 50.8923C43.394 50.8923 47.682 46.5947 47.682 41.3122C47.682 38.7533 46.6856 36.3475 44.876 34.5381C43.0667 32.7287 40.6704 31.7322 38.1115 31.7322Z" fill="#DCE1EB"/>
<path d="M50.0771 41.3123C50.0771 38.1136 48.8314 35.1064 46.5696 32.8446C44.31 30.5851 41.3066 29.3398 38.1115 29.3373V31.7323C40.6668 31.7348 43.0688 32.731 44.876 34.5382C46.6855 36.3476 47.682 38.7533 47.682 41.3123C47.682 46.5916 43.3895 50.8871 38.1115 50.8922V53.2873C44.7102 53.282 50.0771 47.9121 50.0771 41.3123Z" fill="#BEC3D2"/>
<path d="M44.7894 41.9285C44.5529 41.7011 44.0675 41.7263 43.9809 41.3483C43.8663 40.4198 44.2908 39.8792 44.5585 39.2588C43.2034 39.5778 42.135 40.1028 42.1361 38.5625C41.358 39.5199 40.5216 40.4772 40.1761 40.3034C39.6854 40.0132 40.647 37.5491 40.7522 36.2415C40.2774 36.4596 39.3682 36.9378 39.3682 36.9378C39.3682 36.9378 38.5418 35.3111 38.1043 34.5087V34.4999C38.1027 34.5015 38.1027 34.5029 38.1021 34.5043C38.101 34.5032 38.101 34.5016 38.1 34.4999V34.5087C37.6619 35.3111 36.8361 36.9378 36.8361 36.9378C36.8361 36.9378 35.9263 36.4596 35.4521 36.2415C35.5567 37.5493 36.5183 40.0134 36.0276 40.3034C35.6819 40.4775 34.8457 39.5199 34.0682 38.5625C34.0682 40.1028 33.0004 39.5778 31.6458 39.2588C31.913 39.8789 32.3375 40.4196 32.2218 41.3483C32.1365 41.7263 31.6509 41.7011 31.4144 41.9285C32.9865 43.5101 35.7112 44.6848 34.4133 45.9906L37.9125 45.6621C38.0271 46.8521 37.657 48.3124 37.9782 49.1249C38.0535 49.1249 38.0288 49.1249 38.0997 49.1249C38.1008 49.1249 38.1024 49.1249 38.104 49.1249C38.1746 49.1249 38.1485 49.1249 38.2233 49.1249C38.5511 48.2831 38.1766 46.8523 38.2912 45.6621L41.7898 45.9906C40.4932 44.6848 43.2179 43.5101 44.7894 41.9285Z" fill="#D32027"/>
</g>
<defs>
<clipPath id="clip0">
<rect width="40.875" height="40.875" fill="white" transform="translate(17.6644 20.8749)"/>
</clipPath>
</defs>
</svg>
