<svg width="21" height="19" viewBox="0 0 21 19" fill="none" xmlns="http://www.w3.org/2000/svg">
<path fill-rule="evenodd" clip-rule="evenodd" d="M20.625 2.91681C19.885 3.26306 19.0882 3.49719 18.2535 3.60316C19.106 3.06344 19.7607 2.21074 20.0685 1.19415C19.2705 1.6932 18.3873 2.05548 17.4461 2.25017C16.6931 1.40363 15.6204 0.875 14.4329 0.875C12.1526 0.875 10.3032 2.82439 10.3032 5.2297C10.3032 5.57226 10.3411 5.90373 10.411 6.22288C6.97983 6.04174 3.93823 4.30676 1.90181 1.67225C1.54544 2.31548 1.34298 3.06344 1.34298 3.86193C1.34298 5.37264 2.0723 6.70592 3.17931 7.48592C2.50208 7.46374 1.86511 7.26781 1.30983 6.94127C1.30983 6.95976 1.30983 6.97824 1.30983 6.99672C1.30983 9.1063 2.73177 10.8659 4.62137 11.2664C4.27447 11.3662 3.911 11.4192 3.53331 11.4192C3.26811 11.4192 3.00882 11.3921 2.75663 11.3403C3.28231 13.0704 4.80726 14.3297 6.61398 14.3655C5.20033 15.5324 3.41965 16.2286 1.48506 16.2286C1.15236 16.2286 0.823222 16.2089 0.5 16.1682C2.32685 17.4041 4.49706 18.125 6.82946 18.125C14.4234 18.125 18.5767 11.4894 18.5767 5.73492C18.5767 5.54516 18.572 5.35909 18.5649 5.17179C19.3712 4.55814 20.0721 3.78923 20.625 2.91681Z" fill="#2AA3EF"/>
</svg>
