<svg width="58" height="20" viewBox="0 0 58 20" fill="none" xmlns="http://www.w3.org/2000/svg">
<path d="M25.331 18.8611H20.7198L23.6017 1.14979H28.2133L25.331 18.8611ZM16.8406 1.14979L12.4445 13.3317L11.9243 10.7085L11.9248 10.7094L10.3732 2.74449C10.3732 2.74449 10.1856 1.14979 8.18585 1.14979H0.918286L0.833008 1.44968C0.833008 1.44968 3.05544 1.91208 5.65642 3.47409L9.66258 18.8615H14.467L21.8033 1.14979H16.8406ZM53.1097 18.8611H57.3438L53.6522 1.14931H49.9455C48.2337 1.14931 47.8168 2.46923 47.8168 2.46923L40.9396 18.8611H45.7465L46.7077 16.2302H52.5696L53.1097 18.8611ZM48.0357 12.596L50.4585 5.96799L51.8216 12.596H48.0357ZM41.3002 5.40895L41.9582 1.60555C41.9582 1.60555 39.9277 0.833313 37.8109 0.833313C35.5226 0.833313 30.0885 1.83343 30.0885 6.69664C30.0885 11.2723 36.4663 11.3291 36.4663 13.7325C36.4663 16.136 30.7456 15.7053 28.8577 14.1897L28.1721 18.1665C28.1721 18.1665 30.2311 19.1666 33.3769 19.1666C36.5237 19.1666 41.2708 17.5374 41.2708 13.1029C41.2708 8.4979 34.8356 8.06915 34.8356 6.06701C34.8361 4.0644 39.3269 4.32165 41.3002 5.40895Z" fill="#2566AF"/>
</svg>
