<svg width="26" height="26" viewBox="0 0 26 26" fill="none" xmlns="http://www.w3.org/2000/svg">
<g clip-path="url(#clip0)">
<path d="M13.0014 26.0006C20.1808 26.0006 26.0009 20.1805 26.0009 13.0011C26.0009 5.82172 20.1808 0.00167084 13.0014 0.00167084C5.82201 0.00167084 0.00195312 5.82172 0.00195312 13.0011C0.00195312 20.1805 5.82201 26.0006 13.0014 26.0006Z" fill="white"/>
<path d="M17.2475 8.66566H25.2571C25.2557 8.66154 25.2544 8.65808 25.253 8.65435C23.5893 3.96307 19.3098 0.511567 14.168 0.0534058C16.1575 1.14417 16.7387 4.6 17.2475 8.66566Z" fill="#DB2727"/>
<path d="M14.168 25.946C19.3192 25.4871 23.6049 22.0237 25.2622 17.3199C25.2665 17.3073 25.2702 17.295 25.2747 17.2829H17.2543C16.7495 21.3705 16.166 24.8508 14.168 25.946Z" fill="#DB2727"/>
<path d="M0.745328 8.6543C0.743901 8.65798 0.742638 8.66149 0.741211 8.66561H17.9149C17.4061 4.59995 16.1556 1.14417 14.1658 0.0534074C13.781 0.0193211 13.3917 0 12.9981 0C7.34292 0 2.53357 3.61183 0.745328 8.6543Z" fill="#DB2727"/>
<path d="M17.9231 17.2829H0.725586C0.729922 17.295 0.733819 17.3073 0.738101 17.3199C2.51937 22.3753 7.33526 25.9998 12.9997 25.9998C13.3934 25.9998 13.7826 25.9805 14.1674 25.946C16.1657 24.8508 17.4184 21.3705 17.9231 17.2829Z" fill="#DB2727"/>
</g>
<defs>
<clipPath id="clip0">
<rect width="26" height="26" fill="white"/>
</clipPath>
</defs>
</svg>
