<svg width="30" height="30" viewBox="0 0 30 30" fill="none" xmlns="http://www.w3.org/2000/svg">
<circle cx="15" cy="15" r="15" fill="#EF233C"/>
<path d="M22.0712 20.799L16.4143 15.1431L22.0714 9.48699C22.4616 9.0968 22.4616 8.46324 22.0712 8.07293C21.681 7.68275 21.0473 7.68275 20.6571 8.07293L15 13.729L9.34294 8.07293C8.95269 7.68275 8.31902 7.68275 7.92878 8.07293C7.5384 8.46324 7.5384 9.0968 7.92865 9.48699L13.5857 15.1431L7.92878 20.799C7.5384 21.1893 7.5384 21.8229 7.92865 22.2131C8.31902 22.6034 8.95269 22.6034 9.34307 22.2131L15 16.5571L20.6569 22.2131C21.0473 22.6034 21.681 22.6034 22.0714 22.2131C22.4616 21.8229 22.4616 21.1893 22.0712 20.799Z" fill="white"/>
</svg>
