<svg width="54" height="54" viewBox="0 0 54 54" fill="none" xmlns="http://www.w3.org/2000/svg">
<g clip-path="url(#clip0)">
<path d="M14.5456 28.9388C14.1083 28.9388 13.6645 28.8791 13.2237 28.7539C12.3833 28.5152 11.8959 27.6414 12.135 26.8021C12.3741 25.9629 13.2497 25.4764 14.0896 25.715C14.9771 25.967 15.9036 25.4515 16.156 24.5658C16.4084 23.6799 15.8921 22.7544 15.0051 22.5023C11.894 21.6296 9.08127 19.4711 7.09012 16.4257C5.0878 13.3631 4.02942 9.67127 4.02942 5.74942V5.73718C4.0349 4.19523 4.63913 2.75295 5.73084 1.67041C6.81759 0.592734 8.25808 0 9.78875 0C9.79582 0 9.80257 0.000105469 9.80963 0.000105469C12.9857 0.0113906 15.5605 2.60075 15.5493 5.7722C15.5463 6.64274 14.8385 7.34643 13.9674 7.34643C13.9655 7.34643 13.9636 7.34643 13.9617 7.34643C13.088 7.34337 12.3822 6.63356 12.3853 5.76113C12.3903 4.33171 11.2299 3.1647 9.79845 3.15963C9.10331 3.15499 8.45225 3.42446 7.96024 3.91236C7.46823 4.40026 7.19591 5.05027 7.19338 5.74267V5.74942C7.19338 9.00904 8.09756 12.1872 9.7395 14.6984C11.3116 17.103 13.4873 18.7947 15.8659 19.4619C18.4361 20.1923 19.929 22.8691 19.1992 25.4305C18.5949 27.5517 16.6521 28.9386 14.5456 28.9388Z" fill="#FBAC5B"/>
<path d="M39.4544 28.9388C37.3474 28.939 35.4052 27.5519 34.8007 25.4304C34.0707 22.8691 35.5637 20.1922 38.1288 19.4633C40.5125 18.7946 42.6882 17.103 44.2604 14.6984C45.9023 12.1871 46.8065 9.00893 46.8065 5.74942V5.73718C46.8041 5.05037 46.5317 4.40037 46.0396 3.91236C45.5498 3.42668 44.9007 3.15963 44.2108 3.15963C44.2076 3.15963 44.2046 3.15963 44.2014 3.15963C42.77 3.1647 41.6096 4.33171 41.6147 5.76113C41.6177 6.63356 40.9119 7.34337 40.0382 7.34643C40.0363 7.34643 40.0344 7.34643 40.0325 7.34643C39.1614 7.34643 38.4537 6.64284 38.4506 5.7722C38.4394 2.60075 41.0142 0.0113906 44.1902 0.000105469C44.1972 0.000105469 44.2042 0 44.2111 0C45.742 0 47.1823 0.592734 48.2691 1.67041C49.3609 2.75295 49.9651 4.19523 49.9705 5.73159V5.74942C49.9705 9.67127 48.9122 13.3631 46.9097 16.4257C44.9187 19.4711 42.106 21.6296 38.9896 22.5038C38.1077 22.7544 37.5915 23.6801 37.8439 24.5658C38.0964 25.4515 39.0232 25.967 39.9103 25.7151C40.7502 25.4763 41.6258 25.9629 41.8649 26.8022C42.104 27.6415 41.6166 28.5153 40.7762 28.7541C40.3358 28.8791 39.8913 28.9388 39.4544 28.9388Z" fill="#FD8F32"/>
<path d="M34.9897 44.5777H19.0103C18.1366 44.5777 17.4283 43.8705 17.4283 42.9979C17.4283 39.5382 19.2913 36.3846 22.2539 34.6966V28.0905C21.5699 27.8 20.9144 27.4472 20.2957 27.0364C16.9121 24.7896 14.8922 21.0258 14.8922 16.9683V1.57982C14.8922 0.707379 15.6005 0 16.4742 0H37.526C38.3997 0 39.108 0.707273 39.108 1.57982V16.9683C39.108 21.0259 37.088 24.7897 33.7044 27.0364C33.0856 27.4472 32.4301 27.8 31.7463 28.0905V34.6966C34.7089 36.3846 36.5719 39.5382 36.5719 42.9979C36.5717 43.8705 35.8635 44.5777 34.9897 44.5777Z" fill="#FDDB8D"/>
<path d="M33.7042 27.0364C37.0877 24.7897 39.1078 21.0259 39.1078 16.9683V1.57982C39.1078 0.707379 38.3995 0 37.5257 0H27V44.5776H34.9896C35.8634 44.5776 36.5717 43.8704 36.5717 42.9978C36.5717 39.5381 34.7087 36.3845 31.7461 34.6965V28.0905C32.43 27.8 33.0855 27.4472 33.7042 27.0364Z" fill="#FBAC5B"/>
<path d="M31.2187 32.8403H22.7812C21.9075 32.8403 21.1992 32.133 21.1992 31.2605C21.1992 30.3879 21.9075 29.6807 22.7812 29.6807H31.2187C32.0924 29.6807 32.8008 30.3879 32.8008 31.2605C32.8008 32.133 32.0924 32.8403 31.2187 32.8403Z" fill="#FBAC5B"/>
<path d="M31.2187 29.6807H27V32.8402H31.2187C32.0924 32.8402 32.8008 32.1329 32.8008 31.2604C32.8008 30.3878 32.0924 29.6807 31.2187 29.6807Z" fill="#FD8F32"/>
<path d="M27 21.1304C26.1263 21.1304 25.4179 20.4231 25.4179 19.5506V11.2671H24.8888C24.0151 11.2671 23.3068 10.5598 23.3068 9.68724C23.3068 8.8147 24.0151 8.10742 24.8888 8.10742H27C27.8737 8.10742 28.582 8.8147 28.582 9.68724V19.5506C28.582 20.4231 27.8737 21.1304 27 21.1304Z" fill="#FBAC5B"/>
<path d="M27 8.10742V21.1303C27.8737 21.1303 28.582 20.423 28.582 19.5505V9.68724C28.582 8.81469 27.8737 8.10742 27 8.10742Z" fill="#FD8F32"/>
<path d="M41.7267 53.9998H12.2733C11.3996 53.9998 10.6912 53.2926 10.6912 52.42V42.9978C10.6912 42.1253 11.3996 41.418 12.2733 41.418H41.7268C42.6005 41.418 43.3088 42.1252 43.3088 42.9978V52.42C43.3087 53.2926 42.6004 53.9998 41.7267 53.9998Z" fill="#BA602B"/>
<path d="M41.7267 41.418H27V53.9998H41.7267C42.6004 53.9998 43.3087 53.2925 43.3087 52.4199V42.9977C43.3087 42.1252 42.6004 41.418 41.7267 41.418Z" fill="#964C22"/>
<path d="M43.836 54H10.1639C9.29018 54 8.58185 53.2927 8.58185 52.4201C8.58185 51.5476 9.29018 50.8403 10.1639 50.8403H43.8361C44.7099 50.8403 45.4182 51.5476 45.4182 52.4201C45.4182 53.2927 44.7097 54 43.836 54Z" fill="#964C22"/>
<path d="M43.8361 50.8403H27V53.9999H43.8361C44.7098 53.9999 45.4181 53.2926 45.4181 52.42C45.4181 51.5475 44.7098 50.8403 43.8361 50.8403Z" fill="#6F3716"/>
</g>
<defs>
<clipPath id="clip0">
<rect width="54" height="54" fill="white"/>
</clipPath>
</defs>
</svg>
