<svg width="54" height="54" viewBox="0 0 54 54" fill="none" xmlns="http://www.w3.org/2000/svg">
<g clip-path="url(#clip0)">
<path d="M14.5456 28.9388C14.1083 28.9388 13.6645 28.8791 13.2237 28.7539C12.3833 28.5152 11.8959 27.6414 12.135 26.8021C12.3741 25.9629 13.2497 25.4764 14.0896 25.715C14.9771 25.967 15.9036 25.4515 16.156 24.5658C16.4084 23.6799 15.8921 22.7544 15.0051 22.5023C11.894 21.6296 9.08127 19.4711 7.09012 16.4257C5.0878 13.3631 4.02942 9.67127 4.02942 5.74942V5.73718C4.0349 4.19523 4.63913 2.75295 5.73084 1.67041C6.81759 0.592734 8.25808 0 9.78875 0C9.79582 0 9.80257 0.000105469 9.80963 0.000105469C12.9857 0.0113906 15.5605 2.60075 15.5493 5.7722C15.5463 6.64274 14.8385 7.34643 13.9674 7.34643C13.9655 7.34643 13.9636 7.34643 13.9617 7.34643C13.088 7.34337 12.3822 6.63356 12.3853 5.76113C12.3903 4.33171 11.2299 3.1647 9.79845 3.15963C9.10331 3.15499 8.45225 3.42446 7.96024 3.91236C7.46823 4.40026 7.19591 5.05027 7.19338 5.74267V5.74942C7.19338 9.00904 8.09756 12.1872 9.7395 14.6984C11.3116 17.103 13.4873 18.7947 15.8659 19.4619C18.4361 20.1923 19.929 22.8691 19.1992 25.4305C18.5949 27.5517 16.6521 28.9386 14.5456 28.9388Z" fill="#C4CAF3"/>
<path d="M39.4544 28.9388C37.3475 28.939 35.4052 27.5519 34.8008 25.4304C34.0708 22.8691 35.5638 20.1922 38.1289 19.4633C40.5126 18.7946 42.6884 17.103 44.2605 14.6984C45.9024 12.1871 46.8066 9.00893 46.8066 5.74942V5.73718C46.8042 5.05037 46.5318 4.40037 46.0398 3.91236C45.55 3.42668 44.9009 3.15963 44.211 3.15963C44.2078 3.15963 44.2048 3.15963 44.2016 3.15963C42.7702 3.1647 41.6098 4.33171 41.6149 5.76113C41.618 6.63356 40.9122 7.34337 40.0385 7.34643C40.0366 7.34643 40.0347 7.34643 40.0328 7.34643C39.1616 7.34643 38.4539 6.64284 38.4508 5.7722C38.4397 2.60075 41.0145 0.0113906 44.1904 0.000105469C44.1974 0.000105469 44.2044 0 44.2113 0C45.7422 0 47.1825 0.592734 48.2693 1.67041C49.3612 2.75295 49.9654 4.19523 49.9708 5.73159V5.74942C49.9708 9.67127 48.9124 13.3631 46.9101 16.4257C44.919 19.4711 42.1063 21.6296 38.9899 22.5038C38.1081 22.7544 37.5918 23.6801 37.8442 24.5658C38.0966 25.4515 39.0235 25.967 39.9106 25.7151C40.7505 25.4763 41.6261 25.9629 41.8652 26.8022C42.1043 27.6415 41.6169 28.5153 40.7765 28.7541C40.3358 28.8791 39.8913 28.9388 39.4544 28.9388Z" fill="#A8B1EC"/>
<path d="M34.9897 44.5777H19.0103C18.1366 44.5777 17.4283 43.8705 17.4283 42.9979C17.4283 39.5382 19.2913 36.3846 22.2539 34.6966V28.0905C21.5699 27.8 20.9144 27.4472 20.2958 27.0364C16.9121 24.7896 14.8922 21.0258 14.8922 16.9683V1.57982C14.8922 0.707379 15.6005 0 16.4742 0H37.526C38.3997 0 39.108 0.707273 39.108 1.57982V16.9683C39.108 21.0259 37.088 24.7897 33.7044 27.0364C33.0856 27.4472 32.4303 27.8 31.7463 28.0905V34.6966C34.7089 36.3846 36.5719 39.5382 36.5719 42.9979C36.5717 43.8705 35.8635 44.5777 34.9897 44.5777Z" fill="#E0E4F8"/>
<path d="M33.7042 27.0364C37.0879 24.7897 39.1078 21.0259 39.1078 16.9683V1.57982C39.1078 0.707379 38.3995 0 37.5258 0H27V44.5776H34.9897C35.8634 44.5776 36.5717 43.8704 36.5717 42.9978C36.5717 39.5381 34.7087 36.3845 31.7461 34.6965V28.0905C32.4301 27.8 33.0855 27.4472 33.7042 27.0364Z" fill="#C4CAF3"/>
<path d="M26.7314 20.8165C24.7569 20.8165 24.5992 20.764 24.3904 20.6944C23.885 20.5261 23.4914 20.1267 23.3371 19.6257C23.0763 18.7788 23.4922 18.2349 24.122 17.4115C24.6215 16.7584 25.5513 15.5426 27.1103 13.3183C27.6111 12.6038 27.8161 12.1024 27.8988 11.7925L27.9202 11.6248C27.8812 11.1398 27.4735 10.7572 26.978 10.7572C26.527 10.7572 26.1369 11.0765 26.0504 11.5166C25.8819 12.3726 25.0497 12.9303 24.1931 12.7623C23.3357 12.594 22.7773 11.7637 22.9456 10.9076C23.3229 8.98963 25.0187 7.59766 26.978 7.59766C29.244 7.59766 31.0873 9.43851 31.0873 11.7012C31.0873 11.7682 31.0831 11.8351 31.0746 11.9015L31.0258 12.283C31.019 12.3355 31.0097 12.3877 30.9977 12.4394C30.8036 13.2752 30.3679 14.1805 29.7025 15.1299C28.9735 16.1702 28.3781 16.9958 27.8974 17.65C28.5461 17.6462 29.24 17.6397 29.9041 17.6313C30.7733 17.6216 31.4949 18.3188 31.5059 19.1911C31.5168 20.0635 30.8176 20.7797 29.9439 20.7906C28.5296 20.8087 27.4947 20.8165 26.7314 20.8165Z" fill="#C4CAF3"/>
<path d="M31.2188 32.8398H22.7812C21.9075 32.8398 21.1992 32.1325 21.1992 31.26C21.1992 30.3874 21.9075 29.6802 22.7812 29.6802H31.2188C32.0925 29.6802 32.8008 30.3874 32.8008 31.26C32.8008 32.1325 32.0925 32.8398 31.2188 32.8398Z" fill="#C4CAF3"/>
<path d="M31.2188 29.6802H27V32.8397H31.2188C32.0925 32.8397 32.8008 32.1324 32.8008 31.2599C32.8008 30.3873 32.0925 29.6802 31.2188 29.6802Z" fill="#A8B1EC"/>
<path d="M29.9041 17.6318C29.2399 17.6401 28.5461 17.6465 27.8974 17.6504C28.3782 16.9962 28.9735 16.1705 29.7025 15.1304C30.368 14.1809 30.8036 13.2757 30.9977 12.4399C31.0096 12.3882 31.019 12.336 31.0257 12.2835L31.0746 11.902C31.0831 11.8355 31.0873 11.7687 31.0873 11.7017C31.0873 9.44634 29.2558 7.61055 27 7.59863V10.7587C27.4854 10.77 27.8817 11.1476 27.9202 11.6252L27.8988 11.7929C27.8162 12.1029 27.6111 12.6043 27.1103 13.3187C27.0726 13.3725 27.037 13.423 27 13.4757V20.8165C27.7329 20.8149 28.6888 20.807 29.9438 20.7913C30.8174 20.7803 31.5168 20.0642 31.5059 19.1918C31.4949 18.3191 30.7732 17.6221 29.9041 17.6318Z" fill="#A8B1EC"/>
<path d="M41.7267 53.9998H12.2733C11.3996 53.9998 10.6913 53.2926 10.6913 52.42V42.9978C10.6913 42.1253 11.3996 41.418 12.2733 41.418H41.7268C42.6005 41.418 43.3088 42.1252 43.3088 42.9978V52.42C43.3087 53.2926 42.6004 53.9998 41.7267 53.9998Z" fill="#BA602B"/>
<path d="M41.7267 41.418H27V53.9998H41.7267C42.6004 53.9998 43.3087 53.2925 43.3087 52.4199V42.9977C43.3087 42.1252 42.6004 41.418 41.7267 41.418Z" fill="#964C22"/>
<path d="M43.8361 54H10.1639C9.29021 54 8.58188 53.2927 8.58188 52.4201C8.58188 51.5476 9.29021 50.8403 10.1639 50.8403H43.8362C44.7099 50.8403 45.4182 51.5476 45.4182 52.4201C45.4182 53.2927 44.7098 54 43.8361 54Z" fill="#964C22"/>
<path d="M43.8361 50.8403H27V53.9999H43.8361C44.7098 53.9999 45.4181 53.2926 45.4181 52.42C45.4181 51.5475 44.7098 50.8403 43.8361 50.8403Z" fill="#6F3716"/>
</g>
<defs>
<clipPath id="clip0">
<rect width="54" height="54" fill="white"/>
</clipPath>
</defs>
</svg>
