<svg width="54" height="54" viewBox="0 0 54 54" fill="none" xmlns="http://www.w3.org/2000/svg">
<g clip-path="url(#clip0)">
<path d="M14.5456 28.9388C14.1083 28.9388 13.6645 28.8791 13.2236 28.7539C12.3833 28.5152 11.8959 27.6414 12.135 26.8021C12.3741 25.9629 13.2497 25.4764 14.0895 25.715C14.9771 25.967 15.9036 25.4515 16.156 24.5658C16.4084 23.6799 15.8921 22.7544 15.0051 22.5023C11.894 21.6296 9.08125 19.4711 7.09011 16.4257C5.08768 13.3631 4.0293 9.67127 4.0293 5.74942V5.73718C4.03478 4.19523 4.63901 2.75295 5.73072 1.67041C6.81757 0.592734 8.25807 0 9.78873 0C9.7958 0 9.80255 0.000105469 9.80962 0.000105469C12.9857 0.0113906 15.5605 2.60075 15.5493 5.7722C15.5463 6.64274 14.8385 7.34643 13.9674 7.34643C13.9655 7.34643 13.9636 7.34643 13.9617 7.34643C13.088 7.34337 12.3821 6.63356 12.3853 5.76113C12.3903 4.33171 11.2299 3.1647 9.79844 3.15963C9.10329 3.15499 8.45223 3.42446 7.96022 3.91236C7.46811 4.40026 7.19579 5.05027 7.19336 5.74267V5.74942C7.19336 9.00904 8.09754 12.1872 9.73948 14.6984C11.3116 17.103 13.4873 18.7947 15.8658 19.4619C18.4361 20.1923 19.929 22.8691 19.1991 25.4305C18.5948 27.5517 16.6521 28.9386 14.5456 28.9388Z" fill="#E4624C"/>
<path d="M39.4543 28.9388C37.3474 28.939 35.4052 27.5519 34.8006 25.4304C34.0707 22.8691 35.5637 20.1922 38.1288 19.4633C40.5125 18.7946 42.6882 17.103 44.2603 14.6984C45.9023 12.1871 46.8065 9.00893 46.8065 5.74942V5.73718C46.804 5.05037 46.5317 4.40037 46.0396 3.91236C45.5498 3.42668 44.9006 3.15963 44.2108 3.15963C44.2076 3.15963 44.2045 3.15963 44.2014 3.15963C42.77 3.1647 41.6096 4.33171 41.6147 5.76113C41.6177 6.63356 40.9119 7.34337 40.0382 7.34643C40.0363 7.34643 40.0344 7.34643 40.0325 7.34643C39.1613 7.34643 38.4537 6.64284 38.4506 5.7722C38.4394 2.60075 41.0142 0.0113906 44.1902 0.000105469C44.1972 0.000105469 44.2041 0 44.2111 0C45.742 0 47.1822 0.592734 48.2691 1.67041C49.3609 2.75295 49.9651 4.19523 49.9705 5.73159V5.74942C49.9705 9.67127 48.9121 13.3631 46.9097 16.4257C44.9187 19.4711 42.1059 21.6296 38.9895 22.5038C38.1077 22.7544 37.5914 23.6801 37.8438 24.5658C38.0962 25.4515 39.0232 25.967 39.9103 25.7151C40.7501 25.4763 41.6257 25.9629 41.8648 26.8022C42.1039 27.6415 41.6166 28.5153 40.7762 28.7541C40.3357 28.8791 39.8913 28.9388 39.4543 28.9388Z" fill="#CB3B28"/>
<path d="M34.9897 44.5777H19.0103C18.1366 44.5777 17.4283 43.8705 17.4283 42.9979C17.4283 39.5382 19.2913 36.3846 22.2539 34.6966V28.0905C21.5699 27.8 20.9144 27.4472 20.2957 27.0364C16.9122 24.7896 14.8922 21.0258 14.8922 16.9683V1.57982C14.8922 0.707379 15.6005 0 16.4742 0H37.526C38.3997 0 39.108 0.707273 39.108 1.57982V16.9683C39.108 21.0259 37.088 24.7897 33.7044 27.0364C33.0856 27.4472 32.4301 27.8 31.7463 28.0905V34.6966C34.7089 36.3846 36.5719 39.5382 36.5719 42.9979C36.5717 43.8705 35.8635 44.5777 34.9897 44.5777Z" fill="#FF9377"/>
<path d="M33.7042 27.0364C37.0878 24.7897 39.1078 21.0259 39.1078 16.9683V1.57982C39.1078 0.707379 38.3995 0 37.5258 0H27V44.5776H34.9897C35.8634 44.5776 36.5717 43.8704 36.5717 42.9978C36.5717 39.5381 34.7087 36.3845 31.7461 34.6965V28.0905C32.4301 27.8 33.0855 27.4472 33.7042 27.0364Z" fill="#E4624C"/>
<path d="M31.2188 32.8398H22.7812C21.9075 32.8398 21.1992 32.1325 21.1992 31.26C21.1992 30.3874 21.9075 29.6802 22.7812 29.6802H31.2188C32.0925 29.6802 32.8008 30.3874 32.8008 31.26C32.8008 32.1325 32.0925 32.8398 31.2188 32.8398Z" fill="#E4624C"/>
<path d="M31.2188 29.6802H27V32.8397H31.2188C32.0925 32.8397 32.8008 32.1324 32.8008 31.2599C32.8008 30.3873 32.0925 29.6802 31.2188 29.6802Z" fill="#CB3B28"/>
<path d="M41.7267 53.9998H12.2733C11.3996 53.9998 10.6912 53.2926 10.6912 52.42V42.9978C10.6912 42.1253 11.3996 41.418 12.2733 41.418H41.7268C42.6005 41.418 43.3088 42.1252 43.3088 42.9978V52.42C43.3087 53.2926 42.6004 53.9998 41.7267 53.9998Z" fill="#BA602B"/>
<path d="M41.7267 41.418H27V53.9998H41.7267C42.6004 53.9998 43.3087 53.2925 43.3087 52.4199V42.9977C43.3087 42.1252 42.6004 41.418 41.7267 41.418Z" fill="#964C22"/>
<path d="M43.836 54H10.1639C9.29018 54 8.58185 53.2927 8.58185 52.4201C8.58185 51.5476 9.29018 50.8403 10.1639 50.8403H43.8362C44.7099 50.8403 45.4182 51.5476 45.4182 52.4201C45.4182 53.2927 44.7098 54 43.836 54Z" fill="#964C22"/>
<path d="M43.8361 50.8403H27V53.9999H43.8361C44.7098 53.9999 45.4181 53.2926 45.4181 52.42C45.4181 51.5475 44.7098 50.8403 43.8361 50.8403Z" fill="#6F3716"/>
<path d="M31.1095 11.6823C31.1095 9.41957 29.266 7.57861 27 7.57861C25.0406 7.57861 23.3448 8.97069 22.9677 10.8886C22.7993 11.7448 23.3578 12.5751 24.2153 12.7432C25.0717 12.9114 25.9042 12.3536 26.0724 11.4974C26.1589 11.0575 26.5491 10.7381 27 10.7381C27.5212 10.7381 27.9454 11.1616 27.9454 11.6822C27.9454 12.2028 27.5213 12.6262 27 12.6262C26.1263 12.6262 25.418 13.3335 25.418 14.2061C25.418 15.0786 26.1263 15.7859 27 15.7859C27.5212 15.7859 27.9454 16.2093 27.9454 16.7299C27.9454 17.2505 27.5213 17.674 27 17.674C26.5309 17.674 26.1283 17.3256 26.0639 16.8638C26.0576 16.8199 26.0546 16.7747 26.0546 16.7299C26.0546 15.8575 25.3462 15.1501 24.4725 15.1501C23.5988 15.1501 22.8905 15.8574 22.8905 16.7299C22.8905 16.9203 22.9038 17.1121 22.9301 17.3002C23.2116 19.3145 24.9613 20.8335 27 20.8335C29.2659 20.8335 31.1095 18.9927 31.1095 16.7299C31.1095 15.7787 30.7827 14.9028 30.2367 14.2061C30.7827 13.5094 31.1095 12.6335 31.1095 11.6823Z" fill="#E4624C"/>
<path d="M31.1095 11.6823C31.1095 9.41957 29.266 7.57861 27 7.57861V10.7381C27.5212 10.7381 27.9454 11.1616 27.9454 11.6822C27.9454 12.2028 27.5213 12.6262 27 12.6262V15.7858C27.5212 15.7858 27.9454 16.2092 27.9454 16.7298C27.9454 17.2504 27.5213 17.6739 27 17.6739V20.8334C29.2659 20.8334 31.1095 18.9925 31.1095 16.7298C31.1095 15.7786 30.7827 14.9027 30.2367 14.206C30.7827 13.5094 31.1095 12.6335 31.1095 11.6823Z" fill="#CB3B28"/>
</g>
<defs>
<clipPath id="clip0">
<rect width="54" height="54" fill="white"/>
</clipPath>
</defs>
</svg>
