<svg width="20" height="21" viewBox="0 0 20 21" fill="none" xmlns="http://www.w3.org/2000/svg">
<path d="M18.9999 9.12321H11V1.12474C11 0.57297 10.552 0.125 9.99991 0.125C9.44803 0.125 8.99997 0.57297 8.99997 1.12474V9.12321H0.999936C0.448058 9.12321 0 9.57119 0 10.123C0 10.6749 0.448058 11.1229 0.999936 11.1229H8.99997V19.1212C8.99997 19.6731 9.44803 20.1211 9.99991 20.1211C10.552 20.1211 11 19.6731 11 19.1212V11.1229H18.9999C19.5519 11.1229 20 10.6749 20 10.123C20 9.57119 19.5519 9.12321 18.9999 9.12321Z" fill="#2B2D42"/>
</svg>
