<svg width="18" height="18" viewBox="0 0 18 18" fill="none" xmlns="http://www.w3.org/2000/svg">
<g clip-path="url(#clip0)">
<rect width="18" height="18" rx="9" fill="#02B865"/>
<g clip-path="url(#clip1)">
<path d="M12.3309 8.29879H9.701V5.66892C9.701 5.37858 9.46536 5.14294 9.17502 5.14294H8.8244C8.53406 5.14294 8.29842 5.37858 8.29842 5.66892V8.29879H5.66855C5.37821 8.29879 5.14258 8.53442 5.14258 8.82476V9.17539C5.14258 9.46573 5.37821 9.70136 5.66855 9.70136H8.29842V12.3312C8.29842 12.6216 8.53406 12.8572 8.8244 12.8572H9.17502C9.46536 12.8572 9.701 12.6216 9.701 12.3312V9.70136H12.3309C12.6212 9.70136 12.8568 9.46573 12.8568 9.17539V8.82476C12.8568 8.53442 12.6212 8.29879 12.3309 8.29879Z" fill="white"/>
</g>
</g>
<defs>
<clipPath id="clip0">
<rect width="18" height="18" rx="9" fill="white"/>
</clipPath>
<clipPath id="clip1">
<rect width="7.71428" height="7.71428" fill="white" transform="translate(5.14258 5.14294)"/>
</clipPath>
</defs>
</svg>
