<svg width="18" height="18" viewBox="0 0 18 18" fill="none" xmlns="http://www.w3.org/2000/svg">
<g clip-path="url(#clip0)">
<rect width="18" height="18" rx="9" fill="#E5383B"/>
<path d="M10.9157 6.20405L9.05565 8.06407L7.19563 6.20405C6.99028 5.9987 6.65697 5.9987 6.45162 6.20405L6.20363 6.45204C5.99829 6.65738 5.99829 6.9907 6.20363 7.19604L8.06365 9.05606L6.20363 10.9161C5.99829 11.1214 5.99829 11.4547 6.20363 11.6601L6.45162 11.9081C6.65697 12.1134 6.99028 12.1134 7.19563 11.9081L9.05565 10.0481L10.9157 11.9081C11.121 12.1134 11.4543 12.1134 11.6597 11.9081L11.9077 11.6601C12.113 11.4547 12.113 11.1214 11.9077 10.9161L10.0476 9.05606L11.9077 7.19604C12.113 6.9907 12.113 6.65738 11.9077 6.45204L11.6597 6.20405C11.4543 5.9987 11.121 5.9987 10.9157 6.20405Z" fill="white"/>
</g>
<defs>
<clipPath id="clip0">
<rect width="18" height="18" rx="9" fill="white"/>
</clipPath>
</defs>
</svg>
