<svg width="15" height="16" viewBox="0 0 15 16" fill="none" xmlns="http://www.w3.org/2000/svg">
<path d="M6.61443 0.987259C2.96727 0.987259 0 3.9459 0 7.58249C0 11.2191 2.9673 14.1777 6.61443 14.1777C10.2616 14.1777 13.2289 11.2191 13.2289 7.58249C13.2289 3.9459 10.2616 0.987259 6.61443 0.987259ZM6.61443 13.0936C3.5651 13.0936 1.08433 10.6212 1.08433 7.58246C1.08433 4.5436 3.5651 2.07137 6.61443 2.07137C9.66375 2.07137 12.1445 4.5436 12.1445 7.58246C12.1445 10.6212 9.66378 13.0936 6.61443 13.0936Z" fill="#2B2D42"/>
<path d="M14.8403 15.0213L11.28 11.4791C11.0677 11.268 10.7245 11.2689 10.5132 11.4811C10.3021 11.6935 10.303 12.0366 10.5152 12.2479L14.0754 15.7901C14.1813 15.8953 14.3194 15.9479 14.4579 15.9479C14.5972 15.9479 14.7363 15.8945 14.8423 15.7881C15.0533 15.5757 15.0524 15.2325 14.8403 15.0213Z" fill="#2B2D42"/>
</svg>
