<svg width="28" height="29" viewBox="0 0 28 29" fill="none" xmlns="http://www.w3.org/2000/svg">
<circle cx="14" cy="14.1105" r="14" fill="#EF233C"/>
<circle cx="13.9998" cy="14.1105" r="12.3333" stroke="white"/>
<path d="M12.2612 11.7193L14 6.32392L15.7391 11.72L15.8494 12.0622L16.2089 12.0666L21.6629 12.1327C21.6633 12.1339 21.6638 12.1353 21.6643 12.1368C21.6678 12.1482 21.6669 12.1572 21.666 12.1605L21.6656 12.1615L21.6656 12.1615L21.6656 12.1615L21.6655 12.1617L21.6649 12.1624C21.6646 12.1627 21.6643 12.163 21.6638 12.1635C21.6631 12.1642 21.662 12.1651 21.6606 12.1662L21.6604 12.1664L17.2757 15.5865L17.0067 15.7964L17.1041 16.1235L18.7327 21.5914C18.7345 21.5974 18.7352 21.6018 18.7355 21.6047L14.2987 18.3071L14.0005 18.0855L13.7023 18.3071L9.26485 21.6041C9.26511 21.6012 9.2658 21.5969 9.26758 21.5909L10.8962 16.1228L10.9937 15.7958L10.7246 15.5859L6.33989 12.1657L6.3397 12.1656C6.33733 12.1637 6.33602 12.1624 6.33543 12.1618L6.33482 12.1611L6.33468 12.1609C6.33469 12.1609 6.33469 12.1609 6.33468 12.1609L6.33467 12.1609L6.33434 12.1599C6.33343 12.1566 6.33248 12.1476 6.33601 12.1362C6.33648 12.1346 6.33696 12.1333 6.33744 12.1321L11.7914 12.0659L12.1509 12.0616L12.2612 11.7193Z" fill="white" stroke="white"/>
</svg>
