<svg width="33" height="33" viewBox="0 0 33 33" fill="none" xmlns="http://www.w3.org/2000/svg">
<circle cx="16.2791" cy="16.2791" r="16.2791" fill="#EF233C"/>
<circle cx="16.2789" cy="16.2791" r="14.4225" stroke="white"/>
<path d="M16.345 6.23646L16.3449 6.23614C16.3336 6.20092 16.3194 6.18952 16.3138 6.18556C16.3056 6.17977 16.2939 6.17542 16.2794 6.17542C16.265 6.17541 16.2531 6.17976 16.2448 6.18561C16.2391 6.18964 16.225 6.20103 16.2137 6.23587C16.2136 6.23596 16.2136 6.23606 16.2136 6.23615L14.1798 12.5464L14.0695 12.8886L13.71 12.893L7.35517 12.9701C7.35516 12.9701 7.35515 12.9701 7.35514 12.9701C7.33482 12.9703 7.32705 12.9754 7.32119 12.9802C7.31191 12.9878 7.29826 13.0046 7.28978 13.0319C7.28134 13.0591 7.2817 13.0854 7.28707 13.1051C7.29151 13.1213 7.30017 13.1376 7.32178 13.1544L7.32197 13.1546L12.4204 17.1313L12.6895 17.3412L12.5921 17.6683L10.6983 24.0264C10.6878 24.0619 10.6915 24.0851 10.6969 24.1006C10.7033 24.119 10.7157 24.1361 10.7317 24.1483C10.7478 24.1605 10.7606 24.1628 10.7656 24.163C10.7664 24.1631 10.7755 24.1646 10.7966 24.1489L10.7967 24.1488L15.9815 20.2966L16.2798 20.075L16.578 20.2967L21.7618 24.1495L16.345 6.23646ZM16.345 6.23646L18.3789 12.5471L18.4892 12.8893M16.345 6.23646L18.4892 12.8893M18.4892 12.8893L18.8487 12.8937M18.4892 12.8893L18.8487 12.8937M18.8487 12.8937L25.2035 12.9708M18.8487 12.8937L25.2035 12.9708M25.2035 12.9708C25.2035 12.9708 25.2036 12.9708 25.2036 12.9708C25.2239 12.9711 25.2317 12.9762 25.2375 12.981C25.2468 12.9886 25.2604 13.0053 25.2689 13.0326C25.2774 13.0599 25.277 13.0861 25.2716 13.1058C25.2672 13.122 25.2585 13.1383 25.2369 13.1552L25.2367 13.1553M25.2035 12.9708L25.2367 13.1553M25.2367 13.1553L20.1383 17.1321L19.8692 17.342M25.2367 13.1553L19.8692 17.342M19.8692 17.342L19.9666 17.6691M19.8692 17.342L19.9666 17.6691M19.9666 17.6691L21.8603 24.0269M19.9666 17.6691L21.8603 24.0269M21.8603 24.0269C21.871 24.0629 21.8672 24.0864 21.8618 24.1019C21.8555 24.1203 21.8431 24.1372 21.8273 24.1493C21.8114 24.1613 21.7987 24.1637 21.7937 24.1639L21.7935 24.1639C21.7919 24.164 21.7825 24.1647 21.762 24.1496L21.8603 24.0269Z" fill="white" stroke="white"/>
</svg>
